<svg xmlns="http://www.w3.org/2000/svg" xmlns:xlink="http://www.w3.org/1999/xlink" width="500" zoomAndPan="magnify" viewBox="0 0 375 374.999991" height="500" preserveAspectRatio="xMidYMid meet" version="1.0"><defs><g/><clipPath id="e8b4898e69"><path d="M 100 76.242188 L 287.308594 76.242188 L 287.308594 285.492188 L 100 285.492188 Z M 100 76.242188 " clip-rule="nonzero"/></clipPath></defs><path fill="#36e9fd" d="M 134.148438 289.902344 C 133.847656 290.359375 133.507812 290.78125 133.125 291.171875 C 132.742188 291.566406 132.328125 291.914062 131.878906 292.226562 C 131.429688 292.539062 130.953125 292.804688 130.453125 293.023438 C 129.949219 293.242188 129.433594 293.414062 128.898438 293.535156 C 128.367188 293.652344 127.824219 293.722656 127.277344 293.738281 C 126.730469 293.757812 126.1875 293.71875 125.648438 293.632812 C 125.109375 293.542969 124.582031 293.40625 124.070312 293.21875 C 123.554688 293.027344 123.066406 292.792969 122.597656 292.507812 C 120.859375 291.289062 119.15625 290.023438 117.484375 288.714844 C 115.808594 287.40625 114.171875 286.058594 112.566406 284.667969 C 110.960938 283.277344 109.394531 281.847656 107.863281 280.375 C 106.332031 278.90625 104.839844 277.398438 103.382812 275.851562 C 101.929688 274.304688 100.515625 272.722656 99.140625 271.105469 C 97.765625 269.488281 96.433594 267.839844 95.144531 266.152344 C 93.855469 264.46875 92.609375 262.753906 91.40625 261.003906 C 90.203125 259.257812 89.042969 257.480469 87.933594 255.671875 C 86.820312 253.867188 85.753906 252.03125 84.734375 250.171875 C 83.714844 248.3125 82.746094 246.425781 81.820312 244.515625 C 80.898438 242.605469 80.023438 240.675781 79.199219 238.722656 C 78.375 236.765625 77.601562 234.792969 76.875 232.800781 C 76.152344 230.804688 75.480469 228.796875 74.855469 226.769531 C 74.234375 224.742188 73.664062 222.699219 73.148438 220.640625 C 72.628906 218.585938 72.164062 216.519531 71.75 214.4375 C 71.335938 212.359375 70.976562 210.269531 70.671875 208.171875 C 70.363281 206.070312 70.109375 203.96875 69.910156 201.855469 C 69.710938 199.746094 69.566406 197.628906 69.472656 195.511719 C 69.382812 193.390625 69.34375 191.273438 69.359375 189.152344 C 69.375 187.03125 69.445312 184.910156 69.570312 182.792969 C 69.691406 180.675781 69.871094 178.5625 70.101562 176.457031 C 70.332031 174.347656 70.617188 172.246094 70.953125 170.152344 C 71.292969 168.058594 71.683594 165.972656 72.128906 163.898438 C 72.570312 161.824219 73.066406 159.761719 73.617188 157.714844 C 74.164062 155.664062 74.765625 153.628906 75.417969 151.609375 C 76.070312 149.59375 76.773438 147.589844 77.527344 145.605469 C 78.28125 143.625 79.085938 141.660156 79.941406 139.71875 C 80.792969 137.773438 81.695312 135.855469 82.648438 133.957031 C 83.597656 132.058594 84.597656 130.1875 85.644531 128.339844 C 86.691406 126.492188 87.785156 124.675781 88.921875 122.882812 C 90.0625 121.089844 91.246094 119.328125 92.476562 117.597656 C 93.703125 115.863281 94.976562 114.164062 96.292969 112.496094 C 96.660156 112.09375 97.058594 111.726562 97.496094 111.398438 C 97.9375 111.070312 98.402344 110.785156 98.894531 110.546875 C 99.386719 110.308594 99.894531 110.121094 100.425781 109.980469 C 100.953125 109.839844 101.492188 109.75 102.035156 109.710938 C 102.582031 109.675781 103.125 109.691406 103.667969 109.757812 C 104.210938 109.824219 104.742188 109.941406 105.265625 110.113281 C 105.785156 110.28125 106.28125 110.5 106.761719 110.765625 C 107.238281 111.03125 107.6875 111.335938 108.105469 111.6875 L 120.75 123.066406 C 121.195312 123.433594 121.597656 123.835938 121.960938 124.285156 C 122.324219 124.730469 122.636719 125.207031 122.902344 125.71875 C 123.167969 126.226562 123.378906 126.757812 123.535156 127.308594 C 123.691406 127.863281 123.792969 128.425781 123.835938 128.996094 C 123.878906 129.570312 123.863281 130.140625 123.789062 130.710938 C 123.714844 131.28125 123.585938 131.835938 123.398438 132.382812 C 123.214844 132.925781 122.972656 133.445312 122.679688 133.9375 C 122.390625 134.433594 122.050781 134.894531 121.664062 135.320312 C 120.765625 136.523438 119.894531 137.746094 119.058594 138.988281 C 118.21875 140.230469 117.410156 141.496094 116.632812 142.777344 C 115.859375 144.0625 115.113281 145.363281 114.402344 146.683594 C 113.6875 148 113.007812 149.335938 112.363281 150.691406 C 111.714844 152.042969 111.101562 153.410156 110.523438 154.792969 C 109.945312 156.175781 109.398438 157.574219 108.890625 158.980469 C 108.378906 160.390625 107.902344 161.8125 107.460938 163.246094 C 107.023438 164.675781 106.617188 166.121094 106.246094 167.570312 C 105.878906 169.023438 105.542969 170.484375 105.246094 171.953125 C 104.949219 173.421875 104.6875 174.898438 104.464844 176.378906 C 104.238281 177.859375 104.050781 179.347656 103.898438 180.835938 C 103.75 182.328125 103.632812 183.820312 103.554688 185.316406 C 103.476562 186.8125 103.4375 188.308594 103.433594 189.808594 C 103.429688 191.304688 103.460938 192.804688 103.53125 194.300781 C 103.601562 195.796875 103.707031 197.289062 103.851562 198.78125 C 103.996094 200.273438 104.175781 201.757812 104.390625 203.242188 C 104.609375 204.722656 104.859375 206.199219 105.148438 207.671875 C 105.4375 209.140625 105.765625 210.601562 106.125 212.054688 C 106.488281 213.507812 106.882812 214.953125 107.316406 216.386719 C 107.75 217.820312 108.21875 219.246094 108.71875 220.65625 C 109.222656 222.066406 109.761719 223.464844 110.332031 224.851562 C 110.902344 226.234375 111.507812 227.605469 112.148438 228.960938 C 112.789062 230.316406 113.460938 231.652344 114.164062 232.976562 C 114.871094 234.296875 115.609375 235.601562 116.378906 236.886719 C 117.148438 238.175781 117.949219 239.441406 118.78125 240.6875 C 119.613281 241.933594 120.472656 243.160156 121.367188 244.363281 C 122.257812 245.566406 123.179688 246.75 124.132812 247.910156 C 125.082031 249.066406 126.0625 250.203125 127.066406 251.3125 C 128.074219 252.425781 129.109375 253.511719 130.167969 254.570312 C 131.226562 255.632812 132.3125 256.664062 133.425781 257.671875 C 134.535156 258.679688 135.671875 259.660156 136.832031 260.609375 C 137.992188 261.5625 139.171875 262.484375 140.378906 263.378906 C 140.871094 263.675781 141.328125 264.019531 141.75 264.410156 C 142.171875 264.800781 142.546875 265.230469 142.882812 265.699219 C 143.214844 266.164062 143.5 266.660156 143.734375 267.1875 C 143.96875 267.710938 144.144531 268.253906 144.269531 268.816406 C 144.390625 269.375 144.457031 269.945312 144.464844 270.519531 C 144.472656 271.09375 144.421875 271.664062 144.3125 272.226562 C 144.203125 272.789062 144.039062 273.339844 143.820312 273.871094 C 143.601562 274.402344 143.332031 274.90625 143.007812 275.378906 Z M 134.148438 289.902344 " fill-opacity="1" fill-rule="nonzero"/><g fill="#000000" fill-opacity="1"><g transform="translate(135.260186, 273.418303)"><g><path d="M -12.394531 6.785156 L -15.628906 4.097656 C -16.132812 3.675781 -16.222656 2.882812 -15.800781 2.378906 L -11.097656 -3.269531 C -10.675781 -3.777344 -9.882812 -3.832031 -9.375 -3.414062 L -6.144531 -0.722656 Z M -11.488281 11.9375 L -0.914062 -0.761719 L -8.519531 -7.09375 C -10.003906 -8.332031 -12.277344 -8.125 -13.515625 -6.640625 L -19.550781 0.609375 C -20.789062 2.09375 -20.578125 4.367188 -19.09375 5.605469 Z M -11.488281 11.9375 "/></g></g></g><g fill="#000000" fill-opacity="1"><g transform="translate(123.728667, 263.896866)"><g><path d="M -14.671875 8.386719 C -13.824219 9.335938 -12.292969 9.417969 -11.34375 8.570312 L -2.550781 0.6875 C -1.601562 -0.164062 -1.515625 -1.691406 -2.367188 -2.640625 L -8.195312 -9.140625 C -9.042969 -10.089844 -10.574219 -10.175781 -11.523438 -9.324219 L -20.316406 -1.441406 C -21.265625 -0.59375 -21.351562 0.9375 -20.5 1.886719 Z M -13.648438 4.472656 L -16.480469 1.308594 C -16.707031 1.054688 -16.703125 0.710938 -16.453125 0.484375 L -10.03125 -5.273438 C -9.777344 -5.5 -9.433594 -5.464844 -9.207031 -5.210938 L -6.371094 -2.046875 C -6.144531 -1.796875 -6.148438 -1.449219 -6.402344 -1.222656 L -12.824219 4.53125 C -13.074219 4.757812 -13.421875 4.726562 -13.648438 4.472656 Z M -13.648438 4.472656 "/></g></g></g><g fill="#000000" fill-opacity="1"><g transform="translate(113.655367, 252.918049)"><g><path d="M -14.53125 7.960938 L -0.644531 -1 L -2.808594 -4.355469 L -11.304688 1.128906 L -6.425781 -5.609375 L -7.519531 -7.304688 L -15.660156 -5.617188 L -7.164062 -11.101562 L -9.339844 -14.472656 L -23.226562 -5.515625 L -21.046875 -2.140625 L -10.839844 -3.949219 L -16.695312 4.605469 Z M -14.53125 7.960938 "/></g></g></g><g fill="#000000" fill-opacity="1"><g transform="translate(104.313379, 237.882555)"><g><path d="M -15.34375 6.253906 L -0.527344 -1.066406 L -2.296875 -4.644531 L -17.109375 2.671875 Z M -15.34375 6.253906 "/></g></g></g><g fill="#000000" fill-opacity="1"><g transform="translate(101.510468, 232.82129)"><g><path d="M -15.898438 4.65625 L -0.414062 -1.113281 L -1.808594 -4.855469 L -10.746094 -1.527344 L -3.707031 -9.953125 L -5.109375 -13.714844 L -20.59375 -7.945312 L -19.191406 -4.183594 L -10.257812 -7.511719 L -17.292969 0.914062 Z M -15.898438 4.65625 "/></g></g></g><g fill="#000000" fill-opacity="1"><g transform="translate(96.230942, 218.829847)"><g><path d="M -16.902344 -0.0078125 C -16.632812 1.238281 -15.347656 2.070312 -14.101562 1.804688 L -2.554688 -0.667969 C -1.308594 -0.9375 -0.476562 -2.222656 -0.742188 -3.46875 L -2.570312 -12.003906 C -2.835938 -13.25 -4.125 -14.082031 -5.371094 -13.816406 L -16.917969 -11.34375 C -18.164062 -11.078125 -18.996094 -9.789062 -18.730469 -8.542969 Z M -14.066406 -2.894531 L -14.957031 -7.050781 C -15.027344 -7.382812 -14.851562 -7.679688 -14.519531 -7.75 L -6.085938 -9.558594 C -5.753906 -9.628906 -5.472656 -9.429688 -5.402344 -9.097656 L -4.511719 -4.941406 C -4.441406 -4.609375 -4.617188 -4.3125 -4.949219 -4.242188 L -13.378906 -2.433594 C -13.710938 -2.363281 -13.996094 -2.5625 -14.066406 -2.894531 Z M -14.066406 -2.894531 "/></g></g></g><g fill="#000000" fill-opacity="1"><g transform="translate(93.038814, 204.220134)"><g><path d="M -16.566406 -0.109375 L -2.429688 -1.035156 C -1.160156 -1.117188 -0.148438 -2.269531 -0.230469 -3.539062 L -0.800781 -12.25 C -0.882812 -13.523438 -2.035156 -14.53125 -3.304688 -14.449219 L -17.445312 -13.527344 L -17.183594 -9.519531 L -4.632812 -10.339844 C -4.296875 -10.363281 -4.046875 -10.121094 -4.023438 -9.785156 L -3.746094 -5.542969 C -3.722656 -5.207031 -3.941406 -4.9375 -4.28125 -4.914062 L -16.828125 -4.09375 Z M -16.566406 -0.109375 "/></g></g></g><g fill="#000000" fill-opacity="1"><g transform="translate(92.001726, 189.301759)"><g><path d="M -16.1875 -4.863281 C -16.292969 -3.550781 -15.339844 -2.429688 -14.027344 -2.324219 L -8.796875 -1.902344 C -7.484375 -1.796875 -6.363281 -2.75 -6.257812 -4.0625 L -5.734375 -10.519531 C -5.710938 -10.816406 -5.390625 -11.089844 -5.09375 -11.066406 L -3.085938 -10.902344 C -2.789062 -10.878906 -2.535156 -10.5625 -2.558594 -10.265625 L -3.234375 -1.921875 L 0.132812 -1.652344 L 0.988281 -12.238281 C 1.09375 -13.550781 0.140625 -14.671875 -1.171875 -14.777344 L -6.402344 -15.199219 C -7.714844 -15.304688 -8.835938 -14.351562 -8.941406 -13.039062 L -9.464844 -6.558594 C -9.488281 -6.261719 -9.808594 -5.992188 -10.105469 -6.015625 L -12.117188 -6.175781 C -12.414062 -6.199219 -12.664062 -6.519531 -12.640625 -6.816406 L -11.964844 -15.179688 L -15.332031 -15.449219 Z M -16.1875 -4.863281 "/></g></g></g><g fill="#000000" fill-opacity="1"><g transform="translate(93.424004, 174.193769)"><g/></g></g><g fill="#000000" fill-opacity="1"><g transform="translate(94.284446, 168.117822)"><g><path d="M -15.503906 -5.839844 L 0.339844 -1.140625 L 1.472656 -4.96875 L -3.046875 -6.308594 L -1.03125 -13.109375 C -0.65625 -14.375 -1.359375 -15.667969 -2.621094 -16.042969 L -9.421875 -18.058594 C -10.683594 -18.433594 -11.976562 -17.730469 -12.351562 -16.46875 Z M -6.285156 -7.269531 L -11.132812 -8.707031 L -9.753906 -13.347656 C -9.660156 -13.675781 -9.363281 -13.851562 -9.035156 -13.757812 L -5.289062 -12.644531 C -4.964844 -12.546875 -4.8125 -12.238281 -4.910156 -11.914062 Z M -6.285156 -7.269531 "/></g></g></g><g fill="#000000" fill-opacity="1"><g transform="translate(98.465209, 153.765089)"><g><path d="M -14.484375 -8.042969 L 0.5 -1.078125 L 2.183594 -4.699219 L -2.84375 -7.035156 L -1.992188 -8.867188 L 4.644531 -9.996094 L 6.703125 -14.425781 L 0.0664062 -13.296875 L 0.148438 -13.46875 C 0.703125 -14.664062 0.195312 -16.046875 -0.996094 -16.601562 L -6.679688 -19.242188 C -7.875 -19.796875 -9.257812 -19.292969 -9.8125 -18.097656 Z M -5.90625 -8.460938 L -9.738281 -10.242188 L -7.699219 -14.632812 C -7.554688 -14.941406 -7.234375 -15.074219 -6.925781 -14.929688 L -4.132812 -13.632812 C -3.824219 -13.488281 -3.722656 -13.160156 -3.863281 -12.851562 Z M -5.90625 -8.460938 "/></g></g></g><g fill="#000000" fill-opacity="1"><g transform="translate(104.814064, 139.974783)"><g><path d="M -11.855469 -12.042969 C -12.558594 -10.980469 -12.246094 -9.480469 -11.183594 -8.78125 L -1.316406 -2.289062 C -0.25 -1.589844 1.25 -1.898438 1.949219 -2.964844 L 6.746094 -10.257812 C 7.445312 -11.320312 7.136719 -12.820312 6.074219 -13.523438 L -3.792969 -20.011719 C -4.859375 -20.710938 -6.359375 -20.402344 -7.058594 -19.339844 Z M -7.808594 -12.050781 L -5.476562 -15.601562 C -5.289062 -15.886719 -4.953125 -15.96875 -4.667969 -15.78125 L 2.535156 -11.042969 C 2.820312 -10.855469 2.875 -10.515625 2.6875 -10.230469 L 0.351562 -6.683594 C 0.167969 -6.398438 -0.167969 -6.3125 -0.453125 -6.5 L -7.65625 -11.238281 C -7.941406 -11.425781 -7.996094 -11.769531 -7.808594 -12.050781 Z M -7.808594 -12.050781 "/></g></g></g><g clip-path="url(#e8b4898e69)"><path fill="#36e9fd" d="M 193.917969 285.480469 C 142.449219 285.480469 100.582031 243.59375 100.582031 192.109375 C 100.582031 161.023438 115.933594 132.1875 141.703125 114.75 C 141.238281 111.617188 140.390625 109.320312 139.710938 107.882812 L 137.703125 106.523438 C 137.457031 106.335938 137.222656 106.128906 137.007812 105.910156 C 136.25 105.125 135.578125 104.253906 135.015625 103.308594 C 133.84375 101.425781 133.796875 99.097656 134.90625 97.109375 C 135.988281 95.152344 138.070312 93.9375 140.339844 93.9375 C 151.421875 93.9375 162.625 96.433594 172.785156 101.160156 C 174.269531 100.816406 175.75 100.507812 177.207031 100.238281 C 178.023438 95.609375 177.699219 92.128906 177.316406 90.101562 C 176.359375 89.484375 175.574219 88.625 175.058594 87.609375 C 174.539062 86.605469 174.117188 85.476562 173.808594 84.265625 C 173.21875 81.992188 173.886719 79.65625 175.601562 78.027344 C 176.808594 76.878906 178.375 76.246094 180.019531 76.246094 C 180.667969 76.246094 181.3125 76.34375 181.9375 76.542969 C 191.792969 79.574219 201.34375 84.527344 209.683594 90.910156 C 209.910156 90.488281 210.105469 90.105469 210.257812 89.765625 C 210.09375 89.367188 209.980469 88.976562 209.90625 88.597656 C 209.808594 88.148438 209.765625 87.65625 209.773438 87.15625 C 209.789062 86.851562 209.808594 86.625 209.839844 86.398438 L 209.875 86.15625 C 209.996094 85.417969 210.15625 84.714844 210.386719 83.960938 C 210.488281 83.625 210.601562 83.292969 210.726562 82.960938 C 211.117188 81.960938 211.671875 81.132812 212.394531 80.46875 C 213.558594 79.359375 215.136719 78.738281 216.824219 78.738281 C 217.132812 78.738281 217.441406 78.757812 217.75 78.804688 C 218.742188 78.945312 219.703125 79.316406 220.515625 79.886719 C 220.832031 80.113281 221.273438 80.445312 221.679688 80.925781 L 221.6875 80.941406 C 221.785156 81.046875 221.925781 81.203125 222.070312 81.410156 L 223.101562 82.792969 C 225.6875 86.300781 228.054688 90.105469 230.148438 94.105469 C 230.175781 94.152344 230.203125 94.203125 230.222656 94.25 C 233.019531 93.308594 235.5625 92.105469 237.792969 90.660156 C 239.40625 89.617188 240.582031 88.621094 241.382812 87.851562 C 241.367188 86.710938 241.660156 85.566406 242.242188 84.558594 C 242.8125 83.5625 243.527344 82.59375 244.375 81.679688 C 245.585938 80.347656 247.253906 79.613281 249.066406 79.613281 C 249.5625 79.613281 250.066406 79.671875 250.558594 79.789062 C 252.867188 80.34375 254.625 82.023438 255.265625 84.285156 C 258.691406 96.316406 259.496094 109.277344 257.597656 121.8125 C 258.332031 122.964844 258.960938 124.25 259.519531 125.710938 C 277.402344 143.375 287.242188 166.941406 287.242188 192.113281 C 287.246094 243.59375 245.378906 285.480469 193.917969 285.480469 Z M 193.917969 285.480469 " fill-opacity="1" fill-rule="nonzero"/></g><path fill="#36e9fd" d="M 281.59375 192.109375 C 281.59375 234.480469 251.402344 269.933594 211.414062 278.074219 C 211.28125 276.707031 211.082031 275.371094 210.808594 274.078125 C 248.625 266.011719 276.988281 232.402344 276.988281 192.167969 C 276.988281 172.65625 270.316406 154.703125 259.136719 140.46875 L 259.132812 140.464844 C 258.710938 137.625 258.167969 134.804688 257.507812 132.015625 C 257.476562 131.882812 257.445312 131.757812 257.414062 131.632812 C 273.03125 147.988281 281.59375 169.324219 281.59375 192.109375 Z M 258.898438 192.109375 L 263.574219 200.789062 C 264.621094 198.523438 267.039062 195.394531 272.320312 195.394531 L 273.757812 195.394531 L 273.964844 192.109375 Z M 258.898438 192.109375 " fill-opacity="1" fill-rule="nonzero"/><path fill="#1f7dd5" d="M 258.300781 154.414062 C 258.292969 153.597656 258.261719 152.773438 258.234375 151.949219 C 258.09375 148.671875 257.808594 145.398438 257.355469 142.144531 C 256.90625 138.898438 256.308594 135.664062 255.546875 132.46875 C 255.257812 131.191406 254.929688 129.941406 254.535156 128.730469 L 254.460938 128.664062 L 254.460938 128.519531 C 254.375 128.285156 254.300781 128.046875 254.21875 127.8125 C 253.664062 126.332031 252.957031 124.925781 252 123.757812 C 251.046875 122.585938 249.835938 121.671875 248.4375 121.039062 C 247.046875 120.40625 245.523438 120.03125 243.960938 119.878906 C 241.09375 119.585938 238.136719 120.015625 235.15625 120.515625 C 235.292969 121.34375 235.433594 122.167969 235.546875 123 C 235.675781 124.058594 235.828125 125.105469 235.894531 126.167969 C 235.945312 127.230469 235.953125 128.292969 235.894531 129.359375 C 235.792969 130.425781 235.648438 131.488281 235.375 132.546875 C 235.003906 131.507812 234.753906 130.480469 234.546875 129.453125 C 234.320312 128.421875 234.132812 127.398438 233.996094 126.371094 C 233.832031 125.34375 233.699219 124.320312 233.5625 123.292969 C 233.40625 122.265625 233.214844 121.246094 233.039062 120.230469 C 232.261719 116.160156 231.183594 112.144531 229.816406 108.234375 C 228.441406 104.332031 226.808594 100.515625 224.902344 96.839844 C 223 93.164062 220.816406 89.636719 218.382812 86.289062 L 217.476562 85.03125 L 217.363281 84.875 C 217.320312 84.8125 217.320312 84.824219 217.300781 84.796875 C 217.265625 84.746094 217.226562 84.71875 217.191406 84.6875 C 217.113281 84.632812 217.015625 84.59375 216.914062 84.578125 C 216.707031 84.542969 216.464844 84.605469 216.324219 84.738281 C 216.25 84.804688 216.191406 84.886719 216.148438 84.988281 C 216.054688 85.214844 215.976562 85.4375 215.902344 85.664062 C 215.753906 86.121094 215.636719 86.589844 215.558594 87.050781 L 215.527344 87.222656 C 215.527344 87.253906 215.523438 87.277344 215.523438 87.308594 C 215.515625 87.359375 215.523438 87.414062 215.53125 87.464844 C 215.539062 87.519531 215.558594 87.570312 215.578125 87.625 C 215.609375 87.6875 215.609375 87.6875 215.695312 87.828125 C 216.242188 88.730469 216.824219 89.621094 217.347656 90.539062 C 219.503906 94.195312 221.429688 97.976562 223.066406 101.878906 C 224.710938 105.777344 226.121094 109.773438 227.277344 113.835938 C 228.433594 117.894531 229.375 122.046875 229.394531 126.300781 C 228 122.289062 227.046875 118.25 225.84375 114.257812 C 224.621094 110.277344 223.148438 106.375 221.457031 102.574219 C 219.773438 98.792969 217.820312 95.136719 215.683594 91.601562 C 214.328125 94.769531 210.738281 101.109375 202.207031 107.003906 C 203.125 107.703125 204.03125 108.402344 204.929688 109.113281 C 207.320312 110.996094 209.671875 112.917969 211.980469 114.910156 C 214.285156 116.890625 216.558594 118.914062 218.792969 120.980469 C 220.996094 123.074219 223.375 124.996094 224.929688 127.753906 C 222.132812 126.285156 220.097656 124.054688 217.808594 122.074219 C 215.546875 120.0625 213.253906 118.097656 210.929688 116.171875 C 208.59375 114.246094 206.242188 112.347656 203.859375 110.496094 C 202.660156 109.570312 201.464844 108.65625 200.253906 107.746094 L 199.347656 107.074219 C 199.261719 107.007812 199.226562 106.988281 199.175781 106.957031 C 199.128906 106.921875 199.074219 106.90625 199.027344 106.875 C 198.921875 106.835938 198.820312 106.796875 198.703125 106.78125 C 198.253906 106.699219 197.773438 106.875 197.476562 107.210938 C 197.152344 107.570312 197.042969 108.042969 197.152344 108.488281 C 197.207031 108.707031 197.324219 108.910156 197.480469 109.078125 C 197.515625 109.121094 197.566406 109.15625 197.605469 109.191406 L 197.828125 109.371094 L 198.265625 109.734375 C 199.445312 110.691406 200.617188 111.664062 201.78125 112.640625 C 204.113281 114.59375 206.410156 116.589844 208.660156 118.632812 C 210.914062 120.675781 213.144531 122.742188 215.339844 124.84375 C 216.429688 125.902344 217.546875 126.921875 218.574219 128.054688 C 219.601562 129.179688 220.570312 130.363281 221.371094 131.707031 C 220.015625 130.917969 218.816406 129.980469 217.664062 129.003906 C 216.503906 128.019531 215.433594 126.949219 214.320312 125.929688 C 212.089844 123.878906 209.84375 121.859375 207.566406 119.871094 C 205.285156 117.890625 202.984375 115.933594 200.65625 114 C 199.972656 113.429688 199.28125 112.871094 198.597656 112.3125 C 198.222656 115.683594 196.75 123.175781 190.9375 131.359375 C 191.917969 131.558594 192.898438 131.765625 193.878906 131.953125 C 196.847656 132.527344 199.820312 133.070312 202.800781 133.582031 C 205.785156 134.082031 208.773438 134.546875 211.769531 134.960938 C 213.265625 135.183594 214.769531 135.339844 216.261719 135.613281 C 217.753906 135.890625 219.238281 136.21875 220.707031 136.765625 C 219.15625 136.996094 217.628906 137 216.109375 136.921875 C 214.59375 136.835938 213.082031 136.625 211.574219 136.449219 C 208.5625 136.078125 205.546875 135.664062 202.542969 135.214844 C 199.539062 134.761719 196.539062 134.257812 193.554688 133.6875 C 192.058594 133.402344 190.566406 133.113281 189.078125 132.804688 L 188.519531 132.695312 L 188.242188 132.636719 C 188.183594 132.636719 188.128906 132.621094 188.066406 132.621094 C 187.839844 132.601562 187.613281 132.644531 187.40625 132.734375 C 186.984375 132.933594 186.695312 133.316406 186.621094 133.800781 C 186.546875 134.238281 186.71875 134.730469 187.070312 135.019531 C 187.152344 135.101562 187.25 135.152344 187.347656 135.210938 C 187.398438 135.226562 187.449219 135.257812 187.5 135.273438 C 187.5625 135.289062 187.59375 135.308594 187.699219 135.328125 L 188.796875 135.601562 C 190.261719 135.96875 191.734375 136.3125 193.207031 136.652344 C 196.152344 137.320312 199.105469 137.941406 202.070312 138.527344 C 205.03125 139.105469 208.011719 139.640625 211 140.109375 C 213.980469 140.628906 216.992188 140.796875 219.902344 142.023438 C 216.785156 142.570312 213.789062 141.945312 210.777344 141.566406 C 207.769531 141.144531 204.765625 140.671875 201.773438 140.140625 C 198.773438 139.621094 195.789062 139.019531 192.820312 138.359375 C 191.699219 138.113281 190.582031 137.851562 189.460938 137.585938 C 189.691406 140.765625 189.867188 149.238281 186.359375 157.730469 C 190.359375 157.152344 194.332031 156.355469 198.242188 155.289062 C 202.25 154.191406 206.203125 152.863281 210.050781 151.28125 C 213.902344 149.679688 217.632812 147.859375 221.617188 146.398438 C 218.304688 149.078125 214.503906 150.984375 210.632812 152.660156 C 206.753906 154.34375 202.769531 155.777344 198.714844 156.976562 C 194.652344 158.183594 190.507812 159.09375 186.320312 159.738281 C 185.277344 159.917969 184.21875 160.027344 183.171875 160.171875 C 183.003906 160.191406 183.003906 160.191406 182.9375 160.210938 C 182.886719 160.226562 182.835938 160.246094 182.789062 160.273438 C 182.742188 160.300781 182.695312 160.332031 182.652344 160.367188 C 182.636719 160.382812 182.613281 160.40625 182.601562 160.421875 L 182.484375 160.554688 C 182.175781 160.914062 181.894531 161.296875 181.636719 161.695312 C 181.503906 161.898438 181.382812 162.105469 181.265625 162.316406 C 181.214844 162.417969 181.1875 162.511719 181.179688 162.613281 C 181.164062 162.808594 181.269531 163.03125 181.429688 163.167969 C 181.507812 163.234375 181.59375 163.292969 181.691406 163.308594 C 181.742188 163.316406 181.789062 163.335938 181.84375 163.328125 C 181.882812 163.328125 181.871094 163.335938 181.949219 163.332031 L 182.136719 163.316406 L 183.6875 163.226562 C 187.820312 162.988281 191.933594 162.441406 195.984375 161.585938 C 200.035156 160.734375 204.019531 159.574219 207.910156 158.167969 C 211.800781 156.753906 215.585938 155.042969 219.226562 153.066406 C 220.125 152.550781 221.035156 152.054688 221.925781 151.523438 C 222.804688 150.976562 223.691406 150.433594 224.585938 149.914062 C 225.464844 149.367188 226.378906 148.867188 227.316406 148.390625 C 228.242188 147.890625 229.191406 147.433594 230.230469 147.066406 C 229.585938 147.949219 228.859375 148.734375 228.089844 149.488281 C 227.308594 150.210938 226.480469 150.878906 225.625 151.515625 C 224.765625 152.128906 223.851562 152.671875 222.957031 153.246094 C 222.054688 153.800781 221.125 154.3125 220.203125 154.847656 C 217.601562 156.300781 214.914062 157.609375 212.171875 158.78125 C 213.777344 160.9375 217.082031 165.996094 217.679688 171.910156 C 217.871094 173.777344 218.019531 176.292969 218.183594 178.949219 C 218.632812 186.339844 219.230469 196.316406 221.136719 199.726562 C 223.933594 199.078125 227.929688 198.027344 230.179688 196.835938 C 230.171875 196.753906 230.160156 196.664062 230.152344 196.574219 C 229.972656 194.933594 229.792969 193.28125 229.640625 191.613281 C 229.5 189.949219 229.394531 188.285156 229.328125 186.609375 C 229.261719 184.9375 229.242188 183.300781 229.136719 181.679688 C 229.03125 180.050781 228.839844 178.449219 228.488281 176.890625 C 227.796875 173.765625 226.582031 170.765625 224.382812 168.226562 C 225.839844 169.074219 227.054688 170.351562 227.984375 171.789062 C 228.460938 172.507812 228.84375 173.285156 229.203125 174.070312 C 229.53125 174.863281 229.8125 175.675781 230.042969 176.503906 C 230.90625 179.828125 231.105469 183.238281 231.25 186.53125 C 231.328125 188.164062 231.457031 189.804688 231.613281 191.441406 C 231.761719 193.082031 231.9375 194.726562 232.105469 196.375 C 232.28125 198.015625 232.453125 199.679688 232.601562 201.335938 C 232.675781 202.167969 232.738281 203 232.789062 203.832031 L 232.871094 205.089844 L 232.902344 205.714844 L 232.910156 205.808594 C 232.910156 205.824219 232.914062 205.847656 232.917969 205.863281 C 232.921875 205.902344 232.9375 205.9375 232.953125 205.96875 C 232.984375 206.042969 233.027344 206.097656 233.070312 206.140625 C 233.082031 206.152344 233.09375 206.160156 233.109375 206.171875 L 233.125 206.1875 L 233.183594 206.222656 L 233.410156 206.351562 C 233.5625 206.445312 233.726562 206.519531 233.886719 206.585938 C 234.042969 206.671875 234.214844 206.726562 234.386719 206.78125 C 235.058594 207.015625 235.789062 207.125 236.527344 207.136719 C 237.992188 207.152344 239.488281 206.75 240.785156 206.019531 C 242.058594 205.285156 243.167969 204.175781 244.03125 202.917969 C 244.90625 201.652344 245.542969 200.203125 246.011719 198.699219 C 246.949219 195.6875 247.117188 192.417969 247.277344 189.117188 C 247.355469 187.464844 247.445312 185.777344 247.613281 184.101562 C 247.785156 182.425781 248.015625 180.734375 248.449219 179.050781 C 248.871094 177.378906 249.519531 175.710938 250.488281 174.195312 C 250.738281 173.820312 250.992188 173.453125 251.285156 173.109375 L 252.0625 172.152344 C 252.566406 171.527344 253.046875 170.878906 253.496094 170.214844 C 255.300781 167.5625 256.679688 164.625 257.480469 161.535156 C 257.886719 159.992188 258.140625 158.410156 258.242188 156.820312 C 258.273438 156.417969 258.296875 156.027344 258.296875 155.628906 C 258.3125 155.222656 258.316406 154.828125 258.300781 154.414062 Z M 242.226562 198.511719 C 241.898438 199.441406 241.292969 200.285156 240.546875 200.9375 C 239.8125 201.609375 238.851562 201.976562 237.898438 202.070312 C 238.273438 201.527344 238.640625 201.078125 238.960938 200.625 C 238.277344 199.378906 236.847656 195.882812 241.375 194.664062 C 241.519531 194.113281 241.675781 193.542969 241.855469 192.9375 C 242.378906 193.765625 242.597656 194.707031 242.660156 195.65625 C 242.710938 196.609375 242.570312 197.589844 242.226562 198.511719 Z M 248.726562 156.867188 C 248.652344 158.863281 248.347656 160.851562 247.804688 162.792969 C 247.25 164.726562 246.449219 166.613281 245.335938 168.308594 C 244.78125 169.160156 244.125 169.945312 243.425781 170.667969 C 242.703125 171.371094 241.921875 172.011719 241.058594 172.507812 C 241.519531 171.847656 241.972656 171.210938 242.382812 170.546875 C 241.914062 169.390625 240.640625 165.945312 240.433594 161.726562 C 240.214844 157.421875 245.621094 155.5625 247.492188 155.050781 C 247.726562 153.699219 247.949219 152.332031 248.167969 150.9375 C 248.675781 152.875 248.789062 154.878906 248.726562 156.867188 Z M 264.785156 224.71875 C 260.375 234.335938 254.0625 242.925781 246.28125 249.964844 C 246 239.523438 244.152344 230.09375 241.023438 223.230469 C 236.792969 213.941406 230.121094 209.03125 221.734375 209.03125 C 201.601562 209.03125 188.152344 234.304688 185.339844 240.085938 C 183.097656 238.3125 180.859375 236.613281 178.707031 234.976562 C 175.375 232.449219 172.234375 230.0625 169.476562 227.722656 C 167.890625 226.378906 166.304688 224.859375 164.75 223.179688 C 165.691406 220.898438 169.652344 211.894531 177.035156 203.039062 C 188.148438 189.710938 201.410156 182.902344 216.484375 182.796875 C 216.933594 189.699219 217.570312 196.644531 219.195312 200.15625 C 218.496094 200.304688 218.058594 200.386719 218.035156 200.390625 L 215.808594 200.808594 L 217.644531 202.136719 C 221.25 204.746094 226.304688 205.191406 229.34375 205.191406 C 229.96875 205.191406 230.503906 205.171875 230.933594 205.144531 L 230.9375 205.195312 L 230.972656 205.808594 L 230.984375 206.023438 C 230.992188 206.109375 231.011719 206.195312 231.023438 206.273438 C 231.066406 206.433594 231.113281 206.59375 231.179688 206.75 C 231.316406 207.0625 231.519531 207.351562 231.777344 207.585938 C 231.839844 207.644531 231.914062 207.695312 231.980469 207.753906 L 232.089844 207.828125 L 232.164062 207.875 L 232.476562 208.054688 C 232.679688 208.183594 232.898438 208.277344 233.117188 208.371094 C 233.332031 208.476562 233.546875 208.554688 233.773438 208.632812 C 234.664062 208.941406 235.597656 209.082031 236.515625 209.089844 C 238.363281 209.105469 240.171875 208.617188 241.761719 207.722656 C 243.371094 206.800781 244.648438 205.488281 245.660156 204.03125 C 246.671875 202.566406 247.382812 200.941406 247.902344 199.289062 C 248.792969 196.421875 249.03125 193.484375 249.183594 190.617188 C 252.71875 194.96875 261.316406 207.015625 264.785156 224.71875 Z M 169.441406 105.839844 C 167.84375 106.292969 166.273438 106.785156 164.722656 107.328125 C 157.570312 104.664062 150.25 102.957031 142.953125 102.261719 L 142.894531 102.183594 L 142.40625 102.183594 L 142.40625 102.199219 C 142.097656 102.167969 141.789062 102.148438 141.476562 102.121094 L 141.398438 102.113281 C 141.265625 102.101562 141.136719 102.046875 141.054688 101.953125 C 140.617188 101.503906 140.210938 100.980469 139.851562 100.378906 C 139.710938 100.152344 139.796875 99.9375 139.84375 99.859375 C 139.890625 99.773438 140.046875 99.582031 140.34375 99.582031 C 150.273438 99.585938 160.273438 101.746094 169.441406 105.839844 Z M 209.359375 97.90625 C 208.574219 98.847656 207.683594 99.820312 206.660156 100.8125 C 198.578125 94.25 189.792969 89.066406 180.503906 85.402344 C 180.328125 85.335938 180.183594 85.203125 180.097656 85.039062 C 179.757812 84.371094 179.484375 83.636719 179.28125 82.851562 C 179.1875 82.46875 179.40625 82.207031 179.503906 82.113281 C 179.601562 82.019531 179.875 81.8125 180.265625 81.929688 C 190.808594 85.183594 200.847656 90.699219 209.359375 97.90625 Z M 201.949219 104.75 C 201.5 105.078125 201.03125 105.402344 200.550781 105.722656 L 200.421875 105.628906 C 200.363281 105.578125 200.230469 105.492188 200.128906 105.425781 C 200.019531 105.351562 199.894531 105.292969 199.78125 105.234375 C 199.535156 105.128906 199.277344 105.042969 199.019531 104.996094 C 197.976562 104.804688 196.839844 105.183594 196.128906 105.992188 C 195.429688 106.75 195.128906 107.921875 195.417969 108.945312 C 195.550781 109.460938 195.824219 109.9375 196.195312 110.316406 C 196.285156 110.414062 196.390625 110.496094 196.488281 110.585938 L 196.707031 110.765625 L 196.71875 110.773438 C 196.644531 112.28125 196.078125 118.695312 191.769531 126.335938 C 189.46875 126.445312 180.765625 127.128906 170.386719 131.113281 C 159.40625 135.328125 144.503906 144.195312 135.8125 162.515625 C 128.4375 178.0625 127.542969 195.214844 133.148438 213.503906 C 138.886719 232.21875 149.277344 244.894531 152.324219 248.335938 C 166.660156 264.527344 171.949219 273.894531 173.667969 277.460938 C 135.050781 268.289062 106.234375 233.503906 106.234375 192.109375 C 106.234375 143.738281 145.566406 104.390625 193.914062 104.390625 C 196.601562 104.386719 199.289062 104.507812 201.949219 104.75 Z M 201.949219 104.75 " fill-opacity="1" fill-rule="nonzero"/><path fill="#ffffff" d="M 230.457031 261.046875 C 230.5 259.394531 230.507812 257.625 230.472656 255.785156 C 234.984375 255.503906 239.03125 254.488281 242.25 253.367188 C 238.585938 256.261719 234.640625 258.835938 230.457031 261.046875 Z M 243.058594 237.007812 C 239.625 238.816406 234.734375 240.863281 228.972656 241.75 C 229.847656 245.539062 230.265625 249.78125 230.421875 253.839844 C 236.09375 253.472656 241.003906 251.886719 244.351562 250.496094 C 244.265625 247.171875 243.96875 242.253906 243.058594 237.007812 Z M 236.449219 218.984375 C 234.292969 223.09375 230.761719 228.363281 225.371094 232.738281 C 226.414062 234.382812 227.378906 236.382812 228.171875 238.828125 C 228.277344 239.160156 228.375 239.507812 228.480469 239.851562 C 234.367188 238.980469 239.335938 236.820312 242.679688 235.003906 C 241.527344 229.34375 239.617188 223.496094 236.449219 218.984375 Z M 221.730469 210.980469 C 221.273438 210.980469 220.828125 210.996094 220.382812 211.023438 C 220.683594 214.015625 220.703125 218.082031 219.574219 222.457031 C 219.605469 222.445312 219.636719 222.429688 219.667969 222.417969 C 220.097656 222.269531 220.519531 222.101562 220.957031 221.957031 L 222.269531 221.585938 C 222.699219 221.453125 223.148438 221.359375 223.59375 221.273438 C 224.042969 221.1875 224.488281 221.113281 224.9375 221.039062 C 223.289062 221.820312 221.652344 222.496094 220.097656 223.367188 C 219.78125 223.511719 219.480469 223.679688 219.183594 223.847656 C 219.167969 223.890625 219.15625 223.929688 219.140625 223.972656 L 219.019531 223.933594 C 218.605469 224.175781 218.191406 224.417969 217.769531 224.644531 C 217.25 224.972656 216.710938 225.289062 216.191406 225.621094 C 218.269531 226.15625 221.441406 227.542969 224.25 231.140625 C 229.6875 226.695312 233.132812 221.28125 235.136719 217.28125 C 231.917969 213.476562 227.578125 210.980469 221.730469 210.980469 Z M 218.449219 211.230469 C 213.167969 212.039062 208.386719 214.710938 204.226562 218.175781 C 206.222656 220.484375 208.617188 223.867188 210.171875 228.152344 C 211.367188 227.15625 212.621094 226.230469 213.921875 225.386719 L 213.921875 225.289062 L 214.074219 225.289062 C 214.300781 225.144531 214.53125 224.996094 214.765625 224.855469 C 215.527344 224.347656 216.355469 223.953125 217.152344 223.511719 C 217.226562 223.476562 217.296875 223.445312 217.367188 223.410156 L 217.289062 223.382812 C 218.75 218.761719 218.769531 214.367188 218.449219 211.230469 Z M 202.753906 219.457031 C 198.933594 222.925781 195.695312 226.984375 193.144531 230.699219 C 195.632812 232.226562 198.769531 234.589844 201.464844 237.957031 C 201.894531 237.3125 202.34375 236.675781 202.800781 236.046875 C 203.34375 235.300781 203.910156 234.589844 204.484375 233.875 C 205.078125 233.179688 205.667969 232.476562 206.304688 231.816406 C 207.039062 231.027344 207.804688 230.269531 208.597656 229.539062 C 207.148438 225.183594 204.75 221.757812 202.753906 219.457031 Z M 192.058594 232.308594 C 189.359375 236.4375 187.585938 239.925781 186.902344 241.339844 C 189.933594 243.78125 192.941406 246.375 195.769531 249.144531 C 196.207031 247.894531 196.710938 246.695312 197.257812 245.492188 C 198.015625 243.828125 198.851562 242.203125 199.785156 240.625 C 199.96875 240.3125 200.160156 240.003906 200.347656 239.695312 C 197.71875 236.222656 194.539062 233.824219 192.058594 232.308594 Z M 204.269531 262.625 C 195.710938 270.996094 188.070312 276.074219 182.492188 279.078125 C 186.238281 279.566406 190.046875 279.828125 193.917969 279.828125 C 199.234375 279.828125 204.441406 279.351562 209.492188 278.4375 C 208.984375 272.578125 207.078125 267.359375 204.269531 262.625 Z M 191.742188 247.984375 C 182.175781 257.113281 173.820312 262.144531 168.164062 264.84375 C 173.519531 272.332031 175.464844 276.558594 176.042969 277.988281 C 177.085938 278.210938 178.140625 278.402344 179.203125 278.582031 C 184.800781 275.855469 193.386719 270.613281 203.210938 260.933594 C 200.105469 256.179688 196.109375 251.921875 191.742188 247.984375 Z M 177.527344 236.527344 C 177.351562 236.390625 177.179688 236.257812 176.996094 236.121094 C 170.359375 242.285156 163.625 247.175781 156.949219 250.675781 C 161.121094 255.542969 164.410156 259.710938 167.003906 263.238281 C 172.5 260.660156 180.757812 255.746094 190.285156 246.683594 C 186.152344 243.082031 181.761719 239.742188 177.527344 236.527344 Z M 168.210938 229.207031 C 166.617188 227.859375 165.070312 226.371094 163.578125 224.78125 C 157.28125 229.144531 151.042969 232.558594 144.996094 234.925781 C 147.960938 239.828125 151.035156 243.945312 153.777344 247.042969 C 154.421875 247.761719 155.039062 248.46875 155.640625 249.164062 C 162.210938 245.773438 168.867188 240.988281 175.429688 234.933594 C 172.855469 232.964844 170.425781 231.082031 168.210938 229.207031 Z M 155.167969 213.675781 C 147.835938 217.757812 141.847656 219.632812 137.769531 220.492188 C 139.625 225.097656 141.761719 229.382812 143.992188 233.230469 C 149.925781 230.933594 156.058594 227.613281 162.257812 223.335938 C 159.648438 220.378906 157.25 217.113281 155.167969 213.675781 Z M 149.765625 202.507812 C 149.703125 202.324219 149.636719 202.136719 149.570312 201.953125 C 142.523438 204.5 136.953125 205.355469 133.195312 205.585938 C 134.152344 210.132812 135.484375 214.519531 137.050781 218.65625 C 140.980469 217.863281 146.878906 216.0625 154.183594 212 C 152.425781 208.90625 150.929688 205.710938 149.765625 202.507812 Z M 146.878906 189.390625 C 146.316406 189.398438 145.761719 189.40625 145.226562 189.40625 C 139.3125 189.40625 134.75 188.6875 131.621094 187.949219 C 131.425781 193.316406 131.882812 198.582031 132.824219 203.660156 C 136.445312 203.46875 141.933594 202.652344 148.96875 200.105469 C 147.96875 196.910156 147.167969 193.277344 146.878906 189.390625 Z M 148.578125 174.847656 C 143.492188 173.578125 138.917969 171.898438 134.925781 169.84375 C 133.082031 175.238281 132.070312 180.644531 131.710938 185.964844 C 134.992188 186.773438 140.046875 187.585938 146.78125 187.4375 C 146.667969 183.410156 147.152344 179.148438 148.578125 174.847656 Z M 144.054688 152.714844 C 141.660156 155.835938 139.460938 159.355469 137.566406 163.34375 C 136.832031 164.890625 136.175781 166.441406 135.589844 167.992188 C 139.546875 170.058594 144.125 171.742188 149.238281 173.007812 C 149.84375 171.472656 150.574219 169.9375 151.449219 168.40625 C 152.75 166.125 154.191406 164.054688 155.71875 162.167969 C 150.148438 158.636719 146.394531 155.226562 144.054688 152.714844 Z M 159.660156 138.617188 C 154.738281 141.695312 149.726562 145.78125 145.28125 151.175781 C 147.554688 153.644531 151.308594 157.085938 156.996094 160.667969 C 160.199219 157.046875 163.734375 154.179688 167.246094 151.917969 C 163.277344 146.507812 160.96875 141.871094 159.660156 138.617188 Z M 177.332031 130.851562 C 175.328125 131.421875 173.210938 132.113281 171.015625 132.953125 C 168.019531 134.109375 164.726562 135.621094 161.339844 137.59375 C 162.59375 140.765625 164.867188 145.414062 168.902344 150.890625 C 172.519531 148.742188 176.046875 147.214844 179.070312 146.148438 C 177.828125 140.707031 177.242188 135.570312 177.332031 130.851562 Z M 179.292969 130.324219 C 179.148438 134.984375 179.695312 140.09375 180.925781 145.527344 C 183.9375 144.574219 186.277344 144.101562 187.449219 143.894531 C 187.667969 140.65625 187.515625 138.164062 187.421875 137.097656 L 187.265625 137.058594 C 187.1875 137.042969 187.039062 137 186.921875 136.960938 C 186.792969 136.921875 186.671875 136.863281 186.550781 136.808594 C 186.3125 136.6875 186.082031 136.546875 185.886719 136.375 C 185.074219 135.6875 184.648438 134.566406 184.824219 133.511719 C 184.96875 132.484375 185.683594 131.503906 186.65625 131.082031 C 187.136719 130.863281 187.683594 130.769531 188.207031 130.8125 C 188.34375 130.816406 188.46875 130.847656 188.597656 130.871094 L 188.792969 130.910156 C 189.417969 130.058594 190.003906 129.214844 190.535156 128.375 C 188.324219 128.566406 184.273438 129.058594 179.292969 130.324219 Z M 182.804688 88.46875 C 183.382812 91.136719 183.976562 96.269531 182.429688 103.171875 C 186.1875 102.6875 190.023438 102.4375 193.914062 102.4375 C 197.34375 102.4375 200.792969 102.636719 204.175781 103.027344 C 204.53125 102.734375 204.875 102.4375 205.210938 102.140625 C 198.234375 96.507812 190.714844 91.921875 182.804688 88.46875 Z M 144.304688 104.363281 C 145.398438 106.386719 146.972656 110.09375 147.527344 115.410156 C 152.066406 112.65625 156.855469 110.296875 161.867188 108.371094 C 156.074219 106.382812 150.183594 105.042969 144.304688 104.363281 Z M 215.261719 89.652344 C 210.589844 100.6875 201.121094 106.960938 201.121094 106.960938 L 224.933594 127.75 C 226.761719 126.769531 229.398438 126.300781 229.398438 126.300781 C 226.441406 104.203125 215.261719 89.652344 215.261719 89.652344 Z M 221.371094 131.695312 L 198.132812 110.460938 C 198.132812 110.460938 195.714844 123.621094 189.753906 131.695312 L 220.703125 136.75 Z M 188.355469 136.484375 C 190.886719 146.902344 184.90625 158.933594 184.90625 158.933594 C 202.511719 157.664062 221.621094 146.390625 221.621094 146.390625 L 219.910156 142.015625 Z M 106.234375 207.136719 C 118.089844 260.164062 156.949219 271.636719 156.949219 271.636719 C 117.800781 248.570312 118.472656 180.859375 118.472656 180.859375 C 114.667969 192.9375 114.160156 207.132812 114.160156 207.132812 C 103.761719 158.394531 133.195312 128.878906 133.195312 128.878906 C 98.324219 154.625 106.234375 207.136719 106.234375 207.136719 Z M 206.363281 202.070312 C 205.035156 196.550781 205.214844 194.078125 205.214844 194.078125 C 196.074219 196.359375 190.539062 200.253906 190.539062 200.253906 C 195.835938 193.875 206.363281 187.945312 206.363281 187.945312 C 181.6875 193.109375 169.433594 221.644531 169.433594 221.644531 C 184.632812 202.769531 206.363281 202.070312 206.363281 202.070312 Z M 243.964844 119.878906 C 243.964844 119.878906 251.519531 122.605469 252.40625 131.695312 C 253.296875 140.785156 253.929688 152.714844 253.929688 152.714844 C 253.929688 152.714844 252.789062 146.925781 250.253906 140.871094 C 250.253906 140.871094 254.539062 165.195312 249.542969 175.953125 L 255.960938 168.445312 L 259.261719 157.53125 L 258.316406 141.671875 L 254.441406 125.050781 L 250.257812 119.871094 L 243.964844 119.871094 Z M 244.953125 210.851562 C 248.085938 215.453125 250.390625 220.726562 251.304688 226.21875 C 249.589844 223.320312 247.625 220.925781 244.628906 219.382812 C 247.710938 225.550781 249.777344 232.6875 249.570312 239.582031 C 253.140625 234.402344 256.5625 228.648438 258.898438 222.816406 C 257.757812 215.246094 255.082031 207.910156 251.082031 201.378906 C 249.652344 205.226562 247.90625 208 244.953125 210.851562 Z M 230.664062 201.507812 C 230.578125 200.632812 230.496094 199.761719 230.402344 198.890625 C 227.6875 200.136719 223.589844 201.171875 220.949219 201.761719 C 224.558594 203.304688 228.914062 203.296875 230.792969 203.199219 C 230.757812 202.640625 230.710938 202.070312 230.664062 201.507812 Z M 230.664062 201.507812 " fill-opacity="1" fill-rule="nonzero"/><path fill="#36e9fd" d="M 276.992188 192.164062 C 276.992188 232.398438 248.628906 266.007812 210.8125 274.070312 C 210.554688 272.832031 210.242188 271.621094 209.867188 270.4375 C 226.769531 266.992188 242.363281 257.953125 253.859375 244.90625 C 265.703125 231.464844 272.753906 214.238281 273.707031 196.414062 L 273.757812 195.390625 L 273.964844 192.101562 L 258.898438 192.101562 L 263.574219 183.421875 C 264.621094 185.683594 267.035156 188.8125 272.3125 188.8125 L 273.753906 188.8125 L 273.703125 187.785156 C 272.921875 173.21875 268.160156 159.164062 259.925781 147.109375 C 259.777344 145.359375 259.585938 143.609375 259.347656 141.867188 C 259.289062 141.398438 259.214844 140.925781 259.144531 140.457031 C 270.320312 154.699219 276.992188 172.648438 276.992188 192.164062 Z M 276.992188 192.164062 " fill-opacity="1" fill-rule="nonzero"/><path fill="#05001e" d="M 256.699219 127.503906 L 256.667969 127.417969 C 256.613281 127.261719 256.566406 127.113281 256.507812 126.953125 C 255.855469 125.222656 255.089844 123.789062 254.167969 122.585938 C 256.253906 110.113281 255.546875 97.179688 252.128906 85.167969 C 251.8125 84.058594 250.949219 83.230469 249.8125 82.957031 C 249.566406 82.902344 249.316406 82.871094 249.070312 82.871094 C 248.1875 82.871094 247.375 83.230469 246.777344 83.882812 C 246.101562 84.613281 245.527344 85.390625 245.078125 86.175781 C 244.691406 86.84375 244.5625 87.632812 244.722656 88.378906 L 244.832031 88.964844 C 244.136719 89.769531 242.445312 91.53125 239.574219 93.390625 C 236.390625 95.449219 232.679688 97.054688 228.539062 98.160156 C 228.136719 97.320312 227.707031 96.460938 227.257812 95.609375 C 225.246094 91.761719 222.96875 88.101562 220.488281 84.738281 L 219.417969 83.300781 C 219.382812 83.25 219.324219 83.179688 219.265625 83.113281 L 219.21875 83.054688 C 219.039062 82.84375 218.816406 82.675781 218.660156 82.566406 C 218.261719 82.289062 217.789062 82.101562 217.300781 82.03125 C 217.148438 82.011719 216.988281 82 216.835938 82 C 215.988281 82 215.199219 82.308594 214.617188 82.867188 C 214.269531 83.1875 213.988281 83.601562 213.804688 84.078125 C 213.703125 84.351562 213.609375 84.628906 213.523438 84.90625 C 213.335938 85.511719 213.203125 86.078125 213.113281 86.644531 L 213.085938 86.863281 C 213.070312 86.976562 213.058594 87.097656 213.050781 87.222656 C 213.046875 87.464844 213.070312 87.710938 213.117188 87.933594 C 213.160156 88.152344 213.230469 88.382812 213.335938 88.621094 C 213.421875 88.804688 213.554688 89.015625 213.664062 89.1875 C 213.738281 89.308594 213.816406 89.425781 213.898438 89.546875 C 213.523438 90.585938 212.554688 92.878906 210.5 95.722656 C 201.816406 88.492188 191.621094 82.9375 180.964844 79.652344 C 180.65625 79.554688 180.339844 79.507812 180.023438 79.507812 C 179.222656 79.507812 178.449219 79.820312 177.855469 80.390625 C 177.015625 81.191406 176.6875 82.332031 176.976562 83.441406 C 177.226562 84.417969 177.5625 85.320312 177.976562 86.121094 C 178.324219 86.804688 178.910156 87.34375 179.636719 87.628906 C 179.804688 87.695312 179.964844 87.761719 180.144531 87.832031 C 180.652344 89.625 181.828125 95.152344 179.960938 103.082031 C 177.507812 103.464844 174.976562 103.972656 172.429688 104.597656 C 162.421875 99.757812 151.328125 97.199219 140.339844 97.199219 C 139.261719 97.199219 138.269531 97.777344 137.757812 98.695312 C 137.238281 99.628906 137.261719 100.726562 137.816406 101.617188 C 138.257812 102.347656 138.773438 103.023438 139.347656 103.617188 C 139.785156 104.0625 140.355469 104.359375 140.976562 104.460938 L 141.65625 104.605469 C 142.492188 105.933594 144.632812 109.90625 145.179688 116.359375 C 119.292969 133.085938 103.851562 161.382812 103.851562 192.109375 C 103.851562 241.792969 144.253906 282.214844 193.917969 282.214844 C 243.582031 282.214844 283.980469 241.792969 283.980469 192.109375 C 283.980469 167.546875 274.292969 144.609375 256.699219 127.503906 Z M 215.570312 92.925781 C 217.484375 98.660156 219.175781 104.507812 220.613281 110.351562 C 219.058594 107.953125 217.113281 105.574219 215.03125 103.558594 L 213.832031 102.390625 L 214.300781 104 C 215.097656 106.699219 215.398438 109.667969 215.167969 112.582031 L 215.152344 112.796875 L 215.308594 112.941406 C 216.800781 114.300781 218.207031 115.546875 219.578125 116.757812 C 222.613281 119.4375 229.398438 126.304688 229.398438 126.304688 C 229.375 121.726562 228.742188 117.371094 227.703125 113.71875 C 226.566406 109.710938 225.144531 105.671875 223.476562 101.707031 C 221.882812 97.902344 219.949219 94.070312 217.734375 90.320312 C 217.394531 89.722656 217.023438 89.128906 216.667969 88.5625 C 216.464844 88.242188 216.265625 87.917969 216.066406 87.59375 C 216 87.484375 215.996094 87.484375 215.976562 87.433594 C 215.972656 87.421875 215.964844 87.402344 215.957031 87.378906 L 215.957031 87.296875 L 215.960938 87.261719 L 215.984375 87.121094 C 216.0625 86.679688 216.171875 86.230469 216.316406 85.800781 C 216.390625 85.578125 216.464844 85.363281 216.550781 85.152344 C 216.570312 85.109375 216.59375 85.078125 216.628906 85.042969 C 216.644531 85.023438 216.710938 84.996094 216.789062 84.996094 C 216.808594 84.996094 216.824219 84.996094 216.847656 85.003906 C 216.871094 85.007812 216.890625 85.011719 216.894531 85.011719 C 216.894531 85.011719 216.894531 85.011719 216.894531 85.007812 L 216.929688 85.027344 L 216.972656 85.085938 L 217 85.117188 L 218.027344 86.53125 C 220.472656 89.902344 222.652344 93.429688 224.511719 97.03125 C 226.351562 100.582031 228 104.398438 229.398438 108.367188 C 230.761719 112.261719 231.839844 116.277344 232.601562 120.292969 C 232.660156 120.636719 232.71875 120.972656 232.78125 121.3125 C 232.902344 121.988281 233.023438 122.667969 233.125 123.335938 C 233.257812 124.339844 233.398438 125.378906 233.5625 126.417969 C 233.699219 127.4375 233.878906 128.457031 234.117188 129.523438 C 234.367188 130.78125 234.628906 131.757812 234.960938 132.679688 L 235.445312 134.019531 L 235.804688 132.640625 C 236.046875 131.703125 236.207031 130.699219 236.335938 129.367188 C 236.390625 128.371094 236.390625 127.316406 236.335938 126.125 C 236.285156 125.320312 236.183594 124.507812 236.082031 123.722656 C 236.046875 123.460938 236.015625 123.199219 235.980469 122.925781 C 235.882812 122.234375 235.769531 121.550781 235.652344 120.863281 C 237.710938 120.523438 239.878906 120.210938 242 120.210938 C 242.660156 120.210938 243.304688 120.242188 243.910156 120.304688 C 245.496094 120.464844 246.960938 120.84375 248.25 121.429688 C 249.605469 122.039062 250.746094 122.914062 251.648438 124.027344 C 252.488281 125.042969 253.191406 126.328125 253.796875 127.945312 C 253.835938 128.058594 253.980469 128.484375 254.011719 128.578125 L 254.136719 128.960938 C 254.476562 130.019531 254.792969 131.199219 255.109375 132.5625 C 255.847656 135.683594 256.449219 138.921875 256.90625 142.195312 C 257.34375 145.347656 257.636719 148.636719 257.78125 151.953125 L 257.78125 152.007812 C 257.808594 152.808594 257.839844 153.605469 257.847656 154.414062 C 257.859375 154.824219 257.855469 155.210938 257.851562 155.605469 C 257.851562 156 257.824219 156.394531 257.796875 156.769531 C 257.695312 158.320312 257.445312 159.875 257.050781 161.402344 C 256.277344 164.378906 254.957031 167.253906 253.125 169.949219 C 252.707031 170.570312 252.25 171.195312 251.71875 171.855469 L 250.949219 172.808594 C 250.648438 173.160156 250.398438 173.527344 250.117188 173.945312 C 249.207031 175.375 248.5 177.050781 248.027344 178.929688 C 247.546875 180.796875 247.320312 182.644531 247.179688 184.042969 C 247.007812 185.730469 246.921875 187.460938 246.839844 189.082031 C 246.6875 192.269531 246.523438 195.566406 245.59375 198.554688 C 245.09375 200.148438 244.445312 201.527344 243.667969 202.652344 C 242.785156 203.9375 241.714844 204.964844 240.570312 205.621094 C 239.351562 206.304688 237.945312 206.683594 236.605469 206.683594 L 236.535156 206.683594 C 235.816406 206.675781 235.144531 206.558594 234.523438 206.347656 C 234.355469 206.296875 234.21875 206.246094 234.0625 206.167969 C 233.9375 206.113281 233.785156 206.050781 233.640625 205.960938 L 233.417969 205.832031 L 233.359375 205.796875 L 233.339844 205.6875 L 233.3125 205.054688 L 233.230469 203.796875 C 233.179688 202.953125 233.113281 202.105469 233.042969 201.285156 C 232.902344 199.667969 232.734375 198.078125 232.542969 196.320312 L 232.464844 195.558594 C 232.324219 194.191406 232.175781 192.777344 232.050781 191.390625 C 231.871094 189.5 231.757812 187.945312 231.691406 186.5 C 231.535156 183.046875 231.328125 179.671875 230.46875 176.378906 C 230.238281 175.535156 229.949219 174.699219 229.605469 173.875 C 229.308594 173.210938 228.894531 172.347656 228.359375 171.539062 C 227.328125 169.941406 225.222656 168.59375 223.800781 167.765625 C 223.800781 167.765625 227.292969 173.5 228.0625 176.96875 C 228.292969 178.007812 228.46875 179.140625 228.59375 180.421875 C 228.390625 181.355469 226.53125 190.179688 226.585938 195.527344 C 225.886719 195.894531 223.617188 196.996094 220.75 197.519531 C 219.480469 193.144531 218.984375 184.953125 218.613281 178.90625 L 218.609375 178.835938 C 218.449219 176.195312 218.300781 173.707031 218.113281 171.84375 C 217.550781 166.296875 214.707031 161.535156 212.84375 158.941406 C 215.46875 157.800781 218.011719 156.550781 220.414062 155.207031 C 220.757812 155.003906 221.101562 154.808594 221.441406 154.609375 C 222.007812 154.285156 222.597656 153.945312 223.179688 153.59375 C 223.441406 153.425781 223.703125 153.257812 223.96875 153.09375 C 224.597656 152.699219 225.25 152.292969 225.875 151.84375 C 226.867188 151.097656 227.664062 150.449219 228.386719 149.777344 C 229.320312 148.855469 229.996094 148.09375 230.570312 147.304688 L 231.414062 146.160156 L 230.070312 146.632812 C 229.144531 146.957031 228.222656 147.371094 227.101562 147.976562 C 226.121094 148.46875 225.195312 148.984375 224.34375 149.507812 C 223.4375 150.039062 222.523438 150.597656 221.679688 151.121094 C 221.105469 151.464844 220.515625 151.796875 219.945312 152.117188 C 219.625 152.296875 219.304688 152.472656 218.996094 152.652344 C 215.394531 154.609375 211.605469 156.320312 207.742188 157.726562 C 203.746094 159.167969 199.753906 160.3125 195.875 161.128906 C 191.878906 161.972656 187.765625 162.519531 183.644531 162.757812 L 182.085938 162.851562 L 181.929688 162.867188 C 181.90625 162.863281 181.882812 162.859375 181.847656 162.859375 C 181.835938 162.859375 181.828125 162.859375 181.820312 162.859375 L 181.757812 162.847656 C 181.757812 162.847656 181.738281 162.84375 181.691406 162.800781 C 181.625 162.746094 181.59375 162.65625 181.601562 162.605469 C 181.601562 162.582031 181.609375 162.546875 181.628906 162.5 C 181.742188 162.296875 181.859375 162.097656 181.984375 161.902344 C 182.246094 161.5 182.519531 161.128906 182.792969 160.8125 L 182.9375 160.648438 C 182.949219 160.640625 182.957031 160.632812 182.964844 160.628906 L 183.023438 160.605469 L 183.035156 160.59375 C 183.085938 160.582031 183.085938 160.582031 183.207031 160.570312 C 183.574219 160.515625 183.9375 160.472656 184.304688 160.421875 C 184.980469 160.335938 185.683594 160.246094 186.367188 160.132812 C 190.664062 159.46875 194.851562 158.53125 198.816406 157.355469 C 202.933594 156.136719 206.960938 154.675781 210.78125 153.019531 C 214.257812 151.519531 218.019531 149.25 221.589844 146.355469 C 221.589844 146.355469 216.441406 147.957031 214.0625 149.011719 C 212.691406 149.617188 211.265625 150.246094 209.859375 150.832031 C 206.132812 152.359375 202.175781 153.703125 198.097656 154.824219 C 194.59375 155.777344 190.871094 156.558594 187.027344 157.140625 C 189.429688 150.96875 189.976562 144.898438 189.980469 140.660156 C 192.246094 141.378906 201.421875 144.292969 201.421875 144.292969 C 201.246094 144.296875 201.070312 144.304688 200.894531 144.308594 C 199.839844 144.34375 198.746094 144.378906 197.71875 144.378906 L 196.304688 144.378906 L 197.472656 145.183594 C 199.5 146.578125 201.414062 148.253906 203.492188 150.449219 L 203.6875 150.648438 L 203.953125 150.5625 C 206.671875 149.660156 209.433594 148.257812 212.082031 146.449219 C 211.382812 147.675781 210.210938 149.296875 210.210938 149.296875 C 211.832031 148.613281 217.34375 146.082031 220.238281 142.238281 L 220.578125 141.785156 L 220.058594 141.566406 C 217.824219 140.625 215.515625 140.292969 213.289062 139.96875 C 212.554688 139.863281 211.796875 139.753906 211.046875 139.621094 C 208.140625 139.164062 205.144531 138.628906 202.136719 138.042969 C 198.863281 137.394531 195.964844 136.78125 193.285156 136.171875 C 192.078125 135.894531 190.488281 135.523438 188.878906 135.121094 L 187.773438 134.847656 C 187.722656 134.835938 187.695312 134.828125 187.667969 134.820312 L 187.570312 134.785156 C 187.554688 134.773438 187.511719 134.757812 187.511719 134.757812 C 187.445312 134.71875 187.382812 134.683594 187.324219 134.628906 C 187.105469 134.445312 186.980469 134.109375 187.03125 133.8125 C 187.078125 133.488281 187.277344 133.21875 187.554688 133.085938 C 187.679688 133.035156 187.808594 133.003906 187.933594 133.003906 C 187.957031 133.003906 187.976562 133.003906 188 133.007812 L 188.035156 133.011719 L 188.050781 133.011719 C 188.085938 133.015625 188.121094 133.019531 188.152344 133.023438 L 188.398438 133.078125 L 188.953125 133.1875 C 190.351562 133.476562 191.816406 133.765625 193.433594 134.070312 C 196.320312 134.621094 199.347656 135.136719 202.441406 135.597656 C 205.484375 136.058594 208.527344 136.472656 211.488281 136.835938 C 211.832031 136.875 212.171875 136.914062 212.511719 136.960938 C 213.667969 137.101562 216.414062 137.132812 217.789062 137.152344 C 218.882812 137.167969 220.125 136.855469 221.0625 136.71875 C 221.0625 136.71875 214.382812 134.828125 213.445312 134.703125 C 212.898438 134.628906 212.351562 134.558594 211.796875 134.476562 C 208.871094 134.066406 205.859375 133.601562 202.839844 133.097656 C 199.839844 132.582031 196.84375 132.035156 193.933594 131.472656 C 193.226562 131.335938 192.523438 131.191406 191.820312 131.050781 L 191.65625 131.015625 C 196.449219 124.058594 198.175781 117.65625 198.792969 113.8125 C 200.960938 117.625 202.761719 121.648438 204.148438 125.789062 L 204.214844 125.984375 L 204.40625 126.058594 C 206.71875 126.988281 208.640625 127.875 210.527344 129.1875 L 211.144531 129.613281 L 211.21875 128.871094 C 211.308594 127.988281 211.175781 127.125 210.972656 126.273438 C 211.667969 127.246094 212.242188 128.355469 212.675781 129.597656 L 212.785156 129.90625 L 213.113281 129.890625 C 213.292969 129.882812 213.476562 129.878906 213.664062 129.878906 C 216.269531 129.878906 221.597656 131.898438 221.597656 131.898438 C 220.886719 130.703125 220.109375 129.0625 218.882812 127.714844 C 218.082031 126.835938 217.21875 126.011719 216.386719 125.214844 C 216.132812 124.972656 215.878906 124.726562 215.628906 124.484375 C 213.46875 122.425781 211.21875 120.332031 208.9375 118.273438 C 206.6875 116.230469 204.367188 114.210938 202.042969 112.273438 C 200.761719 111.191406 199.609375 110.242188 198.527344 109.359375 L 198.085938 109 L 197.878906 108.832031 C 197.859375 108.8125 197.84375 108.800781 197.8125 108.773438 L 197.78125 108.734375 C 197.675781 108.628906 197.601562 108.492188 197.5625 108.347656 C 197.480469 108.035156 197.566406 107.710938 197.789062 107.464844 C 197.953125 107.28125 198.210938 107.164062 198.460938 107.164062 C 198.507812 107.164062 198.554688 107.167969 198.632812 107.183594 C 198.683594 107.1875 198.742188 107.210938 198.828125 107.242188 C 198.851562 107.253906 198.875 107.261719 198.910156 107.28125 L 198.976562 107.324219 C 198.996094 107.335938 199.019531 107.355469 199.066406 107.390625 L 199.96875 108.0625 C 201.027344 108.851562 202.171875 109.726562 203.570312 110.808594 C 205.808594 112.550781 208.117188 114.40625 210.628906 116.476562 C 213.011719 118.449219 215.320312 120.433594 217.5 122.375 C 218.0625 122.863281 218.621094 123.375 219.167969 123.875 C 220.832031 125.398438 222.554688 126.980469 224.703125 128.113281 L 226.03125 128.8125 L 225.292969 127.507812 C 223.976562 125.167969 222.074219 123.410156 220.234375 121.710938 C 219.847656 121.351562 219.460938 120.992188 219.070312 120.625 C 216.816406 118.546875 214.523438 116.503906 212.25 114.550781 C 210.035156 112.636719 207.726562 110.738281 205.183594 108.738281 C 204.441406 108.152344 203.691406 107.570312 202.933594 106.988281 C 210.332031 101.796875 213.921875 96.285156 215.570312 92.925781 Z M 230.921875 256.195312 C 233.921875 255.976562 236.953125 255.429688 239.964844 254.558594 C 237.097656 256.671875 234.0625 258.597656 230.914062 260.300781 C 230.941406 258.949219 230.945312 257.570312 230.921875 256.195312 Z M 230.839844 253.367188 C 230.65625 249.101562 230.207031 245.320312 229.5 242.109375 C 234.964844 241.203125 239.613281 239.261719 242.71875 237.675781 C 243.527344 242.5625 243.808594 247.113281 243.894531 250.203125 C 240.835938 251.453125 236.199219 252.957031 230.839844 253.367188 Z M 220.195312 221.757812 C 220.9375 218.484375 221.171875 214.945312 220.863281 211.4375 C 221.136719 211.425781 221.433594 211.414062 221.726562 211.414062 C 226.847656 211.414062 231.183594 213.40625 234.609375 217.34375 C 232.730469 221.039062 229.457031 226.203125 224.3125 230.515625 C 221.917969 227.59375 219.296875 226.171875 217.253906 225.480469 C 217.503906 225.328125 217.75 225.175781 217.96875 225.035156 C 218.34375 224.835938 218.710938 224.625 219.066406 224.414062 L 219.542969 224.144531 C 219.761719 224.023438 220.019531 223.886719 220.304688 223.753906 C 221.386719 223.148438 224.878906 221.203125 225.371094 220.96875 C 225.375 220.96875 220.402344 221.683594 220.195312 221.757812 Z M 236.5 219.832031 C 238.992188 223.613281 240.902344 228.628906 242.183594 234.769531 C 239.105469 236.414062 234.386719 238.46875 228.796875 239.355469 C 228.730469 239.128906 228.664062 238.90625 228.59375 238.6875 C 227.890625 236.511719 227.003906 234.542969 225.949219 232.824219 C 231.082031 228.582031 234.472656 223.546875 236.5 219.832031 Z M 241.417969 223.046875 C 237.113281 213.59375 230.308594 208.589844 221.730469 208.589844 C 201.792969 208.589844 188.261719 233.21875 185.179688 239.402344 C 183.21875 237.855469 181.265625 236.371094 179.375 234.933594 L 178.96875 234.625 C 175.984375 232.359375 172.601562 229.792969 169.757812 227.382812 C 168.25 226.109375 166.738281 224.664062 165.265625 223.082031 C 166.445312 220.273438 170.359375 211.730469 177.371094 203.316406 C 188.292969 190.21875 201.3125 183.464844 216.074219 183.238281 C 216.503906 189.769531 217.117188 196.214844 218.574219 199.828125 C 218.324219 199.878906 217.949219 199.949219 217.949219 199.949219 C 217.949219 199.949219 217.949219 199.949219 217.953125 199.949219 L 214.71875 200.558594 L 217.390625 202.488281 C 221.167969 205.222656 226.5 205.625 229.347656 205.625 C 229.746094 205.625 230.140625 205.617188 230.523438 205.605469 L 230.535156 205.832031 L 230.554688 206.066406 C 230.566406 206.164062 230.578125 206.257812 230.601562 206.375 C 230.652344 206.582031 230.710938 206.761719 230.78125 206.925781 C 230.945312 207.300781 231.191406 207.644531 231.488281 207.910156 C 231.542969 207.960938 231.609375 208.015625 231.671875 208.0625 L 231.746094 208.121094 L 231.875 208.203125 L 232.253906 208.425781 C 232.492188 208.570312 232.730469 208.675781 232.925781 208.757812 C 233.175781 208.882812 233.417969 208.964844 233.636719 209.039062 C 234.535156 209.347656 235.503906 209.511719 236.515625 209.519531 L 236.628906 209.519531 C 238.476562 209.519531 240.332031 209.027344 241.988281 208.097656 C 243.507812 207.230469 244.867188 205.945312 246.03125 204.273438 C 246.980469 202.898438 247.734375 201.308594 248.328125 199.410156 C 249.125 196.835938 249.402344 194.25 249.5625 191.78125 C 253.398438 196.710938 261.078125 208.210938 264.335938 224.660156 C 260.074219 233.90625 254.148438 242.085938 246.699219 248.992188 C 246.320312 238.894531 244.457031 229.707031 241.417969 223.046875 Z M 166.617188 151.804688 C 162.972656 154.195312 159.714844 156.980469 156.917969 160.097656 C 151.515625 156.660156 147.964844 153.394531 145.867188 151.15625 C 149.703125 146.566406 154.265625 142.570312 159.453125 139.269531 C 160.679688 142.222656 162.878906 146.636719 166.617188 151.804688 Z M 161.894531 137.789062 C 164.835938 136.09375 167.960938 134.605469 171.175781 133.367188 C 173.027344 132.660156 174.945312 132.011719 176.882812 131.445312 C 176.851562 135.914062 177.414062 140.761719 178.554688 145.863281 C 175.21875 147.066406 172.015625 148.566406 169.019531 150.316406 C 165.242188 145.121094 163.074219 140.699219 161.894531 137.789062 Z M 155.074219 162.277344 C 153.601562 164.132812 152.261719 166.105469 151.089844 168.15625 C 150.890625 168.390625 149.839844 169.683594 148.621094 172.398438 C 143.984375 171.203125 139.789062 169.660156 136.148438 167.789062 C 136.707031 166.339844 137.320312 164.914062 137.972656 163.539062 C 139.675781 159.945312 141.730469 156.535156 144.097656 153.398438 C 146.246094 155.652344 149.808594 158.894531 155.074219 162.277344 Z M 153.585938 211.828125 C 152.03125 212.679688 150.453125 213.476562 148.882812 214.199219 C 149.296875 211.179688 149.847656 208.292969 150.515625 205.59375 C 151.414062 207.703125 152.445312 209.792969 153.585938 211.828125 Z M 147.558594 175.039062 C 146.320312 178.5 145.425781 182.523438 144.890625 187.015625 C 139.214844 186.988281 134.90625 186.265625 132.183594 185.625 C 132.5625 180.414062 133.570312 175.320312 135.1875 170.46875 C 138.839844 172.304688 142.996094 173.839844 147.558594 175.039062 Z M 144.597656 189.84375 C 144.308594 193.351562 144.226562 197.148438 144.355469 201.136719 C 140.402344 202.28125 136.644531 202.972656 133.183594 203.195312 C 132.289062 198.222656 131.90625 193.285156 132.042969 188.496094 C 135.847656 189.351562 140.070312 189.804688 144.597656 189.84375 Z M 144.480469 204.039062 C 144.691406 207.710938 145.074219 211.59375 145.621094 215.59375 C 142.753906 216.730469 139.96875 217.585938 137.332031 218.144531 C 135.820312 214.109375 134.609375 210.023438 133.734375 205.988281 C 137.089844 205.746094 140.703125 205.09375 144.480469 204.039062 Z M 146.042969 218.464844 C 146.382812 220.660156 146.746094 222.757812 147.148438 224.867188 C 147.148438 224.867188 147.71875 221.375 148.488281 217.464844 C 150.636719 216.542969 152.828125 215.46875 155.011719 214.269531 C 156.964844 217.453125 159.183594 220.46875 161.601562 223.253906 C 155.703125 227.285156 149.847656 230.460938 144.183594 232.6875 C 141.984375 228.851562 140.03125 224.863281 138.375 220.820312 C 140.816406 220.273438 143.394531 219.484375 146.042969 218.464844 Z M 163.519531 225.363281 C 164.988281 226.902344 166.464844 228.3125 167.929688 229.546875 C 170.070312 231.359375 172.457031 233.21875 174.742188 234.96875 C 168.445312 240.730469 162.054688 245.320312 155.746094 248.617188 C 155.214844 248.003906 154.671875 247.386719 154.109375 246.753906 C 151.230469 243.5 148.3125 239.496094 145.648438 235.148438 C 151.457031 232.820312 157.464844 229.53125 163.519531 225.363281 Z M 177.027344 236.699219 C 177.109375 236.757812 177.183594 236.816406 177.261719 236.878906 C 181.144531 239.832031 185.539062 243.164062 189.628906 246.703125 C 180.351562 255.453125 172.347656 260.210938 167.140625 262.691406 C 164.425781 259.019531 161.234375 255.027344 157.640625 250.8125 C 164.082031 247.371094 170.601562 242.625 177.027344 236.699219 Z M 187.453125 241.214844 C 188.167969 239.765625 189.792969 236.632812 192.195312 232.910156 C 194.371094 234.28125 197.328125 236.511719 199.816406 239.71875 C 199.679688 239.941406 199.542969 240.167969 199.40625 240.394531 C 198.511719 241.90625 197.652344 243.558594 196.855469 245.308594 C 196.363281 246.390625 195.949219 247.398438 195.589844 248.351562 C 193.21875 246.066406 190.550781 243.722656 187.453125 241.214844 Z M 193.769531 230.566406 C 196.609375 226.476562 199.617188 222.957031 202.71875 220.085938 C 204.460938 222.164062 206.695312 225.363281 208.085938 229.40625 C 207.347656 230.097656 206.636719 230.804688 205.980469 231.507812 C 205.378906 232.140625 204.804688 232.8125 204.25 233.464844 L 204.140625 233.59375 C 203.558594 234.320312 202.992188 235.03125 202.445312 235.78125 C 202.09375 236.265625 201.753906 236.746094 201.433594 237.214844 C 198.84375 234.117188 195.921875 231.925781 193.769531 230.566406 Z M 185.59375 136.699219 C 185.800781 136.878906 186.046875 137.042969 186.375 137.210938 L 186.441406 137.242188 C 186.554688 137.296875 186.667969 137.34375 186.785156 137.378906 C 186.859375 137.402344 186.9375 137.425781 187.007812 137.445312 C 187.085938 138.515625 187.199219 140.71875 187.03125 143.519531 C 185.855469 143.738281 183.800781 144.171875 181.246094 144.960938 C 180.128906 139.867188 179.613281 135.066406 179.71875 130.671875 C 183.972656 129.609375 187.519531 129.121094 189.667969 128.902344 C 189.328125 129.402344 188.976562 129.914062 188.601562 130.425781 C 188.488281 130.402344 188.359375 130.382812 188.242188 130.378906 C 188.144531 130.367188 188.046875 130.363281 187.949219 130.363281 C 187.441406 130.363281 186.929688 130.472656 186.480469 130.675781 C 185.378906 131.15625 184.558594 132.242188 184.386719 133.433594 C 184.191406 134.628906 184.660156 135.914062 185.59375 136.699219 Z M 222.484375 201.863281 C 224.929688 201.273438 227.820312 200.476562 230.03125 199.542969 C 230.09375 200.171875 230.152344 200.800781 230.214844 201.425781 L 230.226562 201.546875 C 230.261719 201.957031 230.296875 202.371094 230.324219 202.78125 C 230.007812 202.789062 229.6875 202.796875 229.359375 202.796875 C 227.488281 202.796875 224.910156 202.621094 222.484375 201.863281 Z M 183.40625 89.214844 C 190.832031 92.53125 197.929688 96.882812 204.53125 102.15625 C 204.375 102.292969 204.210938 102.429688 204.042969 102.570312 C 200.691406 102.191406 197.289062 102 193.917969 102 C 190.257812 102 186.585938 102.222656 182.992188 102.664062 C 184.269531 96.554688 183.875 91.871094 183.40625 89.214844 Z M 180.660156 84.988281 C 180.585938 84.960938 180.523438 84.90625 180.488281 84.835938 C 180.167969 84.203125 179.902344 83.503906 179.707031 82.742188 C 179.691406 82.695312 179.660156 82.570312 179.804688 82.429688 C 179.832031 82.398438 179.917969 82.332031 180.027344 82.332031 C 180.0625 82.332031 180.097656 82.335938 180.132812 82.351562 C 183.578125 83.410156 187.035156 84.746094 190.390625 86.304688 C 190.894531 86.585938 201.902344 92.671875 205.519531 99.332031 C 197.789062 93.273438 189.433594 88.453125 180.660156 84.988281 Z M 142.402344 101.742188 L 142.273438 101.746094 C 142.023438 101.722656 141.765625 101.703125 141.53125 101.683594 L 141.433594 101.671875 C 141.40625 101.671875 141.382812 101.65625 141.371094 101.640625 C 140.953125 101.210938 140.570312 100.710938 140.230469 100.144531 C 140.226562 100.136719 140.207031 100.109375 140.230469 100.070312 C 140.242188 100.054688 140.273438 100.019531 140.347656 100.019531 C 141.945312 100.019531 143.621094 100.082031 145.34375 100.203125 C 148.273438 100.746094 157.128906 102.597656 162.363281 106.007812 C 156.039062 103.859375 149.601562 102.457031 143.199219 101.828125 Z M 145.074219 104.902344 C 150.277344 105.558594 155.480469 106.734375 160.578125 108.402344 C 156.199219 110.15625 151.9375 112.261719 147.886719 114.679688 C 147.347656 110.300781 146.136719 107.046875 145.074219 104.902344 Z M 106.675781 192.109375 C 106.675781 191.609375 106.679688 191.113281 106.6875 190.605469 C 106.6875 190.433594 106.691406 190.257812 106.695312 190.042969 C 106.71875 189.089844 106.75 188.300781 106.792969 187.542969 C 106.804688 187.242188 106.824219 186.945312 106.839844 186.644531 C 106.902344 185.675781 106.980469 184.648438 107.082031 183.59375 C 107.132812 183.113281 107.179688 182.632812 107.238281 182.140625 C 107.246094 182.035156 107.257812 181.929688 107.277344 181.816406 C 107.320312 181.425781 107.371094 181.042969 107.417969 180.675781 L 107.488281 180.179688 C 107.550781 179.726562 107.617188 179.273438 107.683594 178.828125 C 107.851562 177.722656 108.050781 176.574219 108.300781 175.320312 C 108.371094 174.933594 108.453125 174.542969 108.535156 174.148438 C 108.65625 173.566406 108.785156 172.992188 108.921875 172.414062 C 108.949219 172.265625 108.984375 172.121094 109.027344 171.960938 C 109.121094 171.554688 109.21875 171.148438 109.324219 170.734375 C 109.445312 170.25 109.570312 169.773438 109.699219 169.292969 L 109.726562 169.1875 C 109.742188 169.125 109.757812 169.058594 109.789062 168.972656 C 109.894531 168.570312 110.007812 168.179688 110.125 167.769531 C 110.457031 166.621094 110.8125 165.484375 111.183594 164.394531 L 111.457031 163.582031 L 111.621094 163.128906 C 111.691406 162.921875 111.761719 162.71875 111.84375 162.507812 C 111.917969 162.285156 112.003906 162.066406 112.085938 161.839844 C 112.171875 161.605469 112.261719 161.375 112.355469 161.128906 C 112.65625 160.335938 112.9375 159.628906 113.214844 158.960938 C 113.320312 158.695312 113.429688 158.4375 113.550781 158.164062 C 113.921875 157.273438 114.320312 156.375 114.734375 155.488281 C 114.917969 155.089844 115.109375 154.695312 115.292969 154.296875 C 115.746094 153.355469 116.246094 152.371094 116.820312 151.289062 C 117.042969 150.867188 117.269531 150.453125 117.5 150.039062 C 117.574219 149.898438 117.648438 149.761719 117.734375 149.613281 C 117.941406 149.238281 118.148438 148.875 118.363281 148.503906 C 118.601562 148.09375 118.84375 147.683594 119.089844 147.273438 C 119.6875 146.269531 120.335938 145.238281 121.015625 144.210938 C 121.242188 143.867188 121.476562 143.523438 121.707031 143.1875 L 121.742188 143.132812 C 122.035156 142.695312 122.339844 142.261719 122.648438 141.828125 C 122.949219 141.398438 123.257812 140.972656 123.574219 140.546875 C 123.882812 140.125 124.199219 139.699219 124.519531 139.277344 C 124.835938 138.855469 125.164062 138.441406 125.484375 138.03125 C 125.816406 137.617188 126.144531 137.207031 126.476562 136.800781 C 126.808594 136.394531 127.148438 135.992188 127.492188 135.585938 C 127.832031 135.183594 128.171875 134.789062 128.527344 134.394531 C 128.875 134 129.222656 133.605469 129.582031 133.21875 C 129.933594 132.832031 130.289062 132.445312 130.65625 132.066406 C 131.015625 131.679688 131.386719 131.308594 131.757812 130.933594 C 132.121094 130.558594 132.496094 130.183594 132.871094 129.816406 C 133.25 129.453125 133.625 129.082031 134.007812 128.71875 C 134.339844 128.40625 134.671875 128.089844 135.023438 127.769531 C 135.125 127.667969 135.242188 127.566406 135.363281 127.460938 C 135.691406 127.164062 136.011719 126.875 136.335938 126.585938 C 136.734375 126.238281 137.128906 125.894531 137.53125 125.550781 C 138.304688 124.890625 139.128906 124.21875 139.976562 123.550781 L 140.160156 123.40625 C 140.410156 123.210938 140.660156 123.015625 140.921875 122.816406 C 141.085938 122.6875 141.246094 122.5625 141.425781 122.4375 L 141.742188 122.199219 C 141.917969 122.066406 142.089844 121.933594 142.269531 121.808594 C 148.335938 118.367188 159.996094 112.753906 173.113281 111.703125 C 167.808594 113.425781 157.480469 116.980469 152.84375 119.988281 C 152.84375 119.988281 161.363281 119.421875 171.878906 119.421875 C 176.84375 119.421875 186.246094 119.507812 186.246094 119.507812 C 186.105469 119.414062 183.667969 117.835938 180.796875 116.652344 C 183.988281 116.9375 188.59375 117.511719 192.082031 118.574219 C 192.179688 119.328125 192.355469 121.785156 191.414062 125.914062 C 188.601562 126.078125 180.199219 126.875 170.226562 130.699219 C 159.175781 134.945312 144.164062 143.878906 135.417969 162.320312 C 127.996094 177.96875 127.085938 195.226562 132.730469 213.628906 C 138.496094 232.4375 148.933594 245.167969 151.996094 248.621094 C 165.359375 263.71875 170.847656 272.902344 172.847656 276.804688 C 133.835938 267.109375 106.675781 232.414062 106.675781 192.109375 Z M 176.363281 277.605469 C 175.679688 275.976562 173.710938 271.894531 168.828125 265.015625 C 174.203125 262.394531 182.386719 257.460938 191.75 248.585938 C 196.390625 252.804688 199.957031 256.832031 202.648438 260.871094 C 193 270.320312 184.566406 275.460938 179.140625 278.125 C 178.128906 277.949219 177.21875 277.78125 176.363281 277.605469 Z M 193.917969 279.386719 C 190.59375 279.386719 187.230469 279.191406 183.898438 278.808594 C 190.722656 274.972656 197.535156 269.769531 204.175781 263.335938 C 206.929688 268.113281 208.519531 272.949219 209.015625 278.082031 C 204.058594 278.945312 198.980469 279.386719 193.917969 279.386719 Z M 204.851562 218.230469 C 209.1875 214.699219 213.628906 212.515625 218.054688 211.742188 C 218.300781 214.609375 218.265625 218.773438 216.898438 223.144531 C 216.691406 223.257812 216.480469 223.371094 216.269531 223.484375 C 215.6875 223.792969 215.089844 224.109375 214.535156 224.476562 C 214.359375 224.582031 214.1875 224.691406 214.019531 224.800781 L 213.945312 224.851562 L 213.484375 225.148438 C 212.417969 225.847656 211.371094 226.609375 210.363281 227.417969 C 209.109375 224.171875 207.253906 221.082031 204.851562 218.230469 Z M 211.804688 277.539062 C 211.558594 275.265625 211.09375 272.992188 210.429688 270.773438 C 227.238281 267.238281 242.761719 258.171875 254.191406 245.199219 C 266.101562 231.679688 273.1875 214.359375 274.148438 196.433594 L 274.226562 194.949219 L 272.324219 194.949219 C 267.285156 194.949219 264.757812 197.734375 263.566406 199.835938 L 259.40625 192.097656 L 263.566406 184.363281 C 264.757812 186.464844 267.285156 189.242188 272.316406 189.242188 L 274.222656 189.242188 L 274.144531 187.753906 C 273.363281 173.15625 268.59375 159.046875 260.351562 146.949219 C 260.199219 145.175781 260.003906 143.445312 259.78125 141.800781 C 259.371094 138.820312 258.847656 135.902344 258.222656 133.113281 C 273.023438 149.21875 281.160156 170.097656 281.160156 192.09375 C 281.15625 233.269531 252.019531 269.125 211.804688 277.539062 Z M 241.894531 170.503906 C 241.570312 171.015625 240.433594 173.75 240.433594 173.75 C 241.261719 173.269531 242.910156 171.78125 243.746094 170.972656 C 244.539062 170.144531 245.175781 169.351562 245.699219 168.546875 C 246.773438 166.910156 247.625 165.015625 248.226562 162.90625 C 248.773438 160.949219 249.085938 158.921875 249.160156 156.878906 C 249.238281 154.558594 248.5 150.328125 248.046875 148.578125 C 248.046875 148.578125 247.316406 153.480469 247.109375 154.703125 C 245.070312 155.304688 239.777344 157.285156 239.996094 161.746094 C 240.195312 165.742188 241.332031 169.066406 241.894531 170.503906 Z M 240.835938 201.269531 C 241.660156 200.546875 242.304688 199.617188 242.632812 198.664062 C 242.992188 197.707031 243.152344 196.660156 243.101562 195.625 C 243.023438 194.460938 242.734375 193.503906 242.226562 192.699219 L 241.707031 191.878906 L 241.433594 192.808594 C 241.277344 193.332031 241.140625 193.828125 241.015625 194.304688 C 239.488281 194.765625 238.484375 195.539062 238.027344 196.601562 C 237.410156 198.046875 237.964844 199.632812 238.445312 200.585938 C 238.355469 200.707031 238.261719 200.835938 238.164062 200.964844 C 237.964844 201.230469 237.753906 201.511719 237.542969 201.816406 L 237 202.59375 L 237.949219 202.503906 C 239.054688 202.40625 240.085938 201.960938 240.835938 201.269531 Z M 147.105469 129.484375 C 147.105469 129.484375 153.660156 128.949219 158.363281 128.804688 C 155.742188 130.300781 150.167969 133.820312 144.960938 139.210938 C 144.960938 139.210938 166.761719 126.707031 181.53125 123.070312 C 181.53125 123.070312 161.125 122.28125 147.105469 129.484375 Z M 147.105469 129.484375 " fill-opacity="1" fill-rule="nonzero"/></svg>