<svg xmlns="http://www.w3.org/2000/svg" xmlns:xlink="http://www.w3.org/1999/xlink" width="100" zoomAndPan="magnify" viewBox="0 0 75 74.999997" height="100" preserveAspectRatio="xMidYMid meet" version="1.0"><defs><g/><clipPath id="12f034220a"><path d="M 11 1.300781 L 73.804688 1.300781 L 73.804688 71.191406 L 11 71.191406 Z M 11 1.300781 " clip-rule="nonzero"/></clipPath></defs><path fill="#36e9fd" d="M 22.625 72.492188 C 22.425781 72.800781 22.171875 73.058594 21.871094 73.269531 C 21.566406 73.476562 21.234375 73.621094 20.878906 73.703125 C 20.519531 73.785156 20.15625 73.796875 19.792969 73.738281 C 19.429688 73.675781 19.089844 73.550781 18.777344 73.363281 C 17.617188 72.546875 16.503906 71.675781 15.433594 70.75 C 14.363281 69.820312 13.34375 68.84375 12.375 67.8125 C 11.40625 66.78125 10.488281 65.703125 9.628906 64.578125 C 8.769531 63.457031 7.96875 62.292969 7.226562 61.085938 C 6.484375 59.882812 5.804688 58.644531 5.191406 57.371094 C 4.574219 56.097656 4.023438 54.792969 3.542969 53.464844 C 3.058594 52.136719 2.644531 50.785156 2.296875 49.414062 C 1.953125 48.042969 1.679688 46.65625 1.472656 45.257812 C 1.269531 43.859375 1.136719 42.453125 1.074219 41.039062 C 1.011719 39.628906 1.023438 38.214844 1.105469 36.800781 C 1.1875 35.390625 1.34375 33.988281 1.566406 32.589844 C 1.792969 31.195312 2.089844 29.8125 2.457031 28.445312 C 2.820312 27.078125 3.253906 25.734375 3.757812 24.410156 C 4.261719 23.089844 4.832031 21.792969 5.464844 20.527344 C 6.097656 19.261719 6.796875 18.035156 7.554688 16.839844 C 8.316406 15.644531 9.132812 14.488281 10.011719 13.378906 C 10.257812 13.105469 10.546875 12.890625 10.878906 12.726562 C 11.210938 12.566406 11.558594 12.476562 11.925781 12.449219 C 12.292969 12.425781 12.652344 12.46875 13 12.582031 C 13.351562 12.695312 13.667969 12.871094 13.949219 13.109375 L 18.160156 16.898438 C 18.460938 17.144531 18.699219 17.441406 18.878906 17.78125 C 19.058594 18.125 19.160156 18.492188 19.191406 18.875 C 19.21875 19.261719 19.167969 19.636719 19.042969 20.003906 C 18.917969 20.371094 18.726562 20.695312 18.464844 20.984375 C 17.867188 21.785156 17.308594 22.613281 16.789062 23.46875 C 16.273438 24.324219 15.796875 25.203125 15.367188 26.105469 C 14.933594 27.007812 14.550781 27.929688 14.207031 28.867188 C 13.867188 29.808594 13.574219 30.761719 13.328125 31.730469 C 13.082031 32.699219 12.882812 33.675781 12.734375 34.664062 C 12.585938 35.652344 12.484375 36.644531 12.433594 37.644531 C 12.378906 38.640625 12.378906 39.640625 12.421875 40.636719 C 12.46875 41.632812 12.566406 42.628906 12.710938 43.617188 C 12.855469 44.605469 13.046875 45.582031 13.289062 46.554688 C 13.53125 47.523438 13.816406 48.476562 14.152344 49.417969 C 14.488281 50.359375 14.867188 51.28125 15.296875 52.1875 C 15.722656 53.089844 16.191406 53.96875 16.703125 54.828125 C 17.21875 55.683594 17.773438 56.515625 18.367188 57.320312 C 18.960938 58.121094 19.59375 58.894531 20.265625 59.636719 C 20.9375 60.375 21.644531 61.082031 22.386719 61.753906 C 23.125 62.425781 23.898438 63.058594 24.703125 63.65625 C 25.03125 63.855469 25.3125 64.113281 25.535156 64.429688 C 25.761719 64.742188 25.914062 65.089844 26 65.46875 C 26.082031 65.84375 26.085938 66.222656 26.011719 66.605469 C 25.941406 66.984375 25.796875 67.332031 25.578125 67.65625 Z M 22.625 72.492188 " fill-opacity="1" fill-rule="nonzero"/><g fill="#000000" fill-opacity="1"><g transform="translate(22.996458, 67.000669)"><g><path d="M -4.128906 2.261719 L -5.207031 1.363281 C -5.375 1.222656 -5.40625 0.960938 -5.265625 0.792969 L -3.699219 -1.089844 C -3.558594 -1.257812 -3.292969 -1.277344 -3.125 -1.136719 L -2.046875 -0.242188 Z M -3.828125 3.976562 L -0.304688 -0.253906 L -2.839844 -2.363281 C -3.335938 -2.777344 -4.089844 -2.707031 -4.503906 -2.210938 L -6.515625 0.203125 C -6.925781 0.699219 -6.859375 1.457031 -6.363281 1.867188 Z M -3.828125 3.976562 "/></g></g></g><g fill="#000000" fill-opacity="1"><g transform="translate(19.153879, 63.827908)"><g><path d="M -4.890625 2.792969 C -4.605469 3.109375 -4.097656 3.140625 -3.78125 2.855469 L -0.847656 0.230469 C -0.535156 -0.0546875 -0.503906 -0.5625 -0.789062 -0.878906 L -2.730469 -3.046875 C -3.015625 -3.363281 -3.523438 -3.390625 -3.839844 -3.105469 L -6.769531 -0.480469 C -7.085938 -0.199219 -7.113281 0.3125 -6.832031 0.628906 Z M -4.546875 1.492188 L -5.492188 0.4375 C -5.566406 0.351562 -5.566406 0.238281 -5.480469 0.160156 L -3.34375 -1.757812 C -3.257812 -1.832031 -3.144531 -1.820312 -3.066406 -1.738281 L -2.121094 -0.683594 C -2.046875 -0.597656 -2.046875 -0.484375 -2.132812 -0.40625 L -4.273438 1.511719 C -4.355469 1.585938 -4.472656 1.574219 -4.546875 1.492188 Z M -4.546875 1.492188 "/></g></g></g><g fill="#000000" fill-opacity="1"><g transform="translate(15.797216, 60.169509)"><g><path d="M -4.839844 2.652344 L -0.214844 -0.332031 L -0.9375 -1.449219 L -3.765625 0.375 L -2.140625 -1.871094 L -2.507812 -2.433594 L -5.21875 -1.871094 L -2.386719 -3.699219 L -3.113281 -4.824219 L -7.738281 -1.835938 L -7.015625 -0.714844 L -3.613281 -1.316406 L -5.5625 1.535156 Z M -4.839844 2.652344 "/></g></g></g><g fill="#000000" fill-opacity="1"><g transform="translate(12.684244, 55.159326)"><g><path d="M -5.113281 2.082031 L -0.175781 -0.355469 L -0.765625 -1.546875 L -5.703125 0.890625 Z M -5.113281 2.082031 "/></g></g></g><g fill="#000000" fill-opacity="1"><g transform="translate(11.750249, 53.472786)"><g><path d="M -5.296875 1.550781 L -0.136719 -0.371094 L -0.601562 -1.617188 L -3.582031 -0.507812 L -1.234375 -3.316406 L -1.703125 -4.570312 L -6.863281 -2.648438 L -6.394531 -1.394531 L -3.417969 -2.503906 L -5.761719 0.304688 Z M -5.296875 1.550781 "/></g></g></g><g fill="#000000" fill-opacity="1"><g transform="translate(9.990986, 48.810508)"><g><path d="M -5.632812 -0.00390625 C -5.542969 0.414062 -5.113281 0.691406 -4.699219 0.601562 L -0.851562 -0.222656 C -0.4375 -0.3125 -0.160156 -0.742188 -0.246094 -1.15625 L -0.855469 -4 C -0.945312 -4.414062 -1.375 -4.691406 -1.789062 -4.605469 L -5.636719 -3.78125 C -6.050781 -3.691406 -6.328125 -3.261719 -6.242188 -2.847656 Z M -4.6875 -0.964844 L -4.984375 -2.347656 C -5.007812 -2.460938 -4.949219 -2.558594 -4.839844 -2.582031 L -2.027344 -3.183594 C -1.917969 -3.207031 -1.824219 -3.140625 -1.800781 -3.03125 L -1.503906 -1.648438 C -1.480469 -1.535156 -1.539062 -1.4375 -1.648438 -1.414062 L -4.457031 -0.8125 C -4.570312 -0.789062 -4.664062 -0.855469 -4.6875 -0.964844 Z M -4.6875 -0.964844 "/></g></g></g><g fill="#000000" fill-opacity="1"><g transform="translate(8.927291, 43.942203)"><g><path d="M -5.519531 -0.0351562 L -0.808594 -0.34375 C -0.386719 -0.371094 -0.0507812 -0.753906 -0.078125 -1.179688 L -0.265625 -4.082031 C -0.292969 -4.507812 -0.679688 -4.84375 -1.101562 -4.816406 L -5.8125 -4.507812 L -5.726562 -3.171875 L -1.542969 -3.445312 C -1.429688 -3.453125 -1.347656 -3.375 -1.339844 -3.261719 L -1.25 -1.847656 C -1.242188 -1.734375 -1.3125 -1.644531 -1.425781 -1.636719 L -5.605469 -1.363281 Z M -5.519531 -0.0351562 "/></g></g></g><g fill="#000000" fill-opacity="1"><g transform="translate(8.58171, 38.971047)"><g><path d="M -5.394531 -1.621094 C -5.429688 -1.183594 -5.109375 -0.808594 -4.671875 -0.773438 L -2.929688 -0.632812 C -2.492188 -0.597656 -2.121094 -0.917969 -2.085938 -1.355469 L -1.910156 -3.503906 C -1.902344 -3.605469 -1.796875 -3.695312 -1.699219 -3.6875 L -1.027344 -3.632812 C -0.929688 -3.625 -0.84375 -3.519531 -0.851562 -3.421875 L -1.078125 -0.640625 L 0.0429688 -0.550781 L 0.328125 -4.078125 C 0.363281 -4.515625 0.046875 -4.886719 -0.390625 -4.925781 L -2.132812 -5.0625 C -2.570312 -5.101562 -2.945312 -4.78125 -2.980469 -4.34375 L -3.152344 -2.1875 C -3.160156 -2.085938 -3.269531 -1.996094 -3.367188 -2.003906 L -4.039062 -2.058594 C -4.136719 -2.066406 -4.21875 -2.171875 -4.210938 -2.269531 L -3.988281 -5.058594 L -5.109375 -5.148438 Z M -5.394531 -1.621094 "/></g></g></g><g fill="#000000" fill-opacity="1"><g transform="translate(9.055646, 33.936705)"><g/></g></g><g fill="#000000" fill-opacity="1"><g transform="translate(9.342365, 31.912054)"><g><path d="M -5.167969 -1.945312 L 0.113281 -0.378906 L 0.492188 -1.65625 L -1.015625 -2.101562 L -0.34375 -4.367188 C -0.21875 -4.789062 -0.453125 -5.21875 -0.875 -5.34375 L -3.140625 -6.015625 C -3.558594 -6.140625 -3.992188 -5.910156 -4.117188 -5.488281 Z M -2.09375 -2.421875 L -3.710938 -2.902344 L -3.25 -4.449219 C -3.21875 -4.558594 -3.121094 -4.617188 -3.011719 -4.582031 L -1.761719 -4.214844 C -1.652344 -4.179688 -1.601562 -4.078125 -1.636719 -3.96875 Z M -2.09375 -2.421875 "/></g></g></g><g fill="#000000" fill-opacity="1"><g transform="translate(10.735495, 27.129382)"><g><path d="M -4.828125 -2.679688 L 0.167969 -0.359375 L 0.726562 -1.566406 L -0.949219 -2.34375 L -0.664062 -2.953125 L 1.546875 -3.332031 L 2.234375 -4.808594 L 0.0234375 -4.429688 L 0.0507812 -4.488281 C 0.234375 -4.886719 0.0664062 -5.347656 -0.332031 -5.53125 L -2.226562 -6.410156 C -2.625 -6.597656 -3.085938 -6.429688 -3.269531 -6.03125 Z M -1.96875 -2.820312 L -3.246094 -3.414062 L -2.566406 -4.875 C -2.515625 -4.980469 -2.410156 -5.023438 -2.308594 -4.976562 L -1.378906 -4.542969 C -1.273438 -4.496094 -1.238281 -4.386719 -1.289062 -4.28125 Z M -1.96875 -2.820312 "/></g></g></g><g fill="#000000" fill-opacity="1"><g transform="translate(12.851085, 22.534121)"><g><path d="M -3.949219 -4.011719 C -4.183594 -3.660156 -4.082031 -3.160156 -3.726562 -2.925781 L -0.4375 -0.761719 C -0.0820312 -0.53125 0.417969 -0.632812 0.648438 -0.988281 L 2.25 -3.417969 C 2.480469 -3.773438 2.378906 -4.273438 2.023438 -4.507812 L -1.265625 -6.667969 C -1.617188 -6.902344 -2.117188 -6.796875 -2.351562 -6.445312 Z M -2.601562 -4.015625 L -1.824219 -5.199219 C -1.761719 -5.292969 -1.648438 -5.320312 -1.554688 -5.257812 L 0.84375 -3.679688 C 0.941406 -3.617188 0.957031 -3.503906 0.894531 -3.410156 L 0.117188 -2.226562 C 0.0546875 -2.132812 -0.0546875 -2.105469 -0.152344 -2.167969 L -2.550781 -3.746094 C -2.644531 -3.808594 -2.664062 -3.921875 -2.601562 -4.015625 Z M -2.601562 -4.015625 "/></g></g></g><g clip-path="url(#12f034220a)"><path fill="#36e9fd" d="M 42.613281 71.1875 C 25.421875 71.1875 11.4375 57.195312 11.4375 40 C 11.4375 29.617188 16.5625 19.988281 25.171875 14.160156 C 25.015625 13.117188 24.734375 12.347656 24.507812 11.867188 L 23.835938 11.414062 C 23.753906 11.351562 23.675781 11.28125 23.601562 11.210938 C 23.351562 10.949219 23.125 10.65625 22.9375 10.339844 C 22.546875 9.710938 22.53125 8.933594 22.902344 8.269531 C 23.261719 7.617188 23.960938 7.210938 24.71875 7.210938 C 28.417969 7.210938 32.160156 8.042969 35.554688 9.625 C 36.050781 9.507812 36.542969 9.40625 37.03125 9.316406 C 37.304688 7.769531 37.195312 6.605469 37.066406 5.929688 C 36.746094 5.722656 36.484375 5.4375 36.3125 5.097656 C 36.140625 4.761719 36 4.386719 35.894531 3.980469 C 35.699219 3.222656 35.921875 2.441406 36.496094 1.898438 C 36.898438 1.511719 37.421875 1.300781 37.96875 1.300781 C 38.1875 1.300781 38.402344 1.335938 38.609375 1.402344 C 41.902344 2.414062 45.09375 4.066406 47.878906 6.199219 C 47.953125 6.058594 48.019531 5.929688 48.070312 5.816406 C 48.015625 5.683594 47.976562 5.554688 47.953125 5.425781 C 47.921875 5.277344 47.90625 5.113281 47.90625 4.945312 C 47.914062 4.84375 47.921875 4.769531 47.929688 4.691406 L 47.941406 4.613281 C 47.980469 4.363281 48.035156 4.128906 48.113281 3.878906 C 48.148438 3.765625 48.183594 3.65625 48.226562 3.546875 C 48.355469 3.210938 48.542969 2.933594 48.785156 2.710938 C 49.171875 2.339844 49.699219 2.132812 50.261719 2.132812 C 50.367188 2.132812 50.46875 2.140625 50.570312 2.15625 C 50.902344 2.203125 51.222656 2.328125 51.496094 2.519531 C 51.601562 2.59375 51.75 2.703125 51.882812 2.863281 L 51.886719 2.871094 C 51.917969 2.90625 51.96875 2.957031 52.015625 3.027344 L 52.359375 3.488281 C 53.222656 4.660156 54.015625 5.929688 54.714844 7.265625 C 54.722656 7.28125 54.730469 7.300781 54.738281 7.316406 C 55.671875 7 56.519531 6.597656 57.265625 6.117188 C 57.804688 5.765625 58.199219 5.433594 58.464844 5.179688 C 58.460938 4.796875 58.558594 4.414062 58.753906 4.078125 C 58.941406 3.746094 59.183594 3.421875 59.464844 3.117188 C 59.871094 2.671875 60.425781 2.425781 61.03125 2.425781 C 61.199219 2.425781 61.367188 2.445312 61.53125 2.484375 C 62.300781 2.671875 62.886719 3.230469 63.101562 3.988281 C 64.246094 8.003906 64.515625 12.332031 63.882812 16.519531 C 64.125 16.90625 64.335938 17.335938 64.523438 17.824219 C 70.496094 23.722656 73.78125 31.59375 73.78125 40 C 73.785156 57.195312 59.800781 71.1875 42.613281 71.1875 Z M 42.613281 71.1875 " fill-opacity="1" fill-rule="nonzero"/></g><path fill="#36e9fd" d="M 71.898438 40 C 71.898438 54.152344 61.8125 65.992188 48.457031 68.710938 C 48.410156 68.257812 48.34375 67.808594 48.253906 67.378906 C 60.882812 64.683594 70.359375 53.457031 70.359375 40.019531 C 70.359375 33.503906 68.128906 27.507812 64.394531 22.75 C 64.253906 21.800781 64.070312 20.859375 63.851562 19.929688 C 63.839844 19.886719 63.832031 19.84375 63.820312 19.800781 C 69.035156 25.265625 71.898438 32.390625 71.898438 40 Z M 64.316406 40 L 65.878906 42.898438 C 66.226562 42.144531 67.035156 41.097656 68.796875 41.097656 L 69.28125 41.097656 L 69.347656 40 Z M 64.316406 40 " fill-opacity="1" fill-rule="nonzero"/><path fill="#1f7dd5" d="M 64.117188 27.410156 C 64.113281 27.136719 64.101562 26.863281 64.09375 26.585938 C 64.046875 25.492188 63.953125 24.398438 63.800781 23.3125 C 63.648438 22.226562 63.453125 21.148438 63.195312 20.082031 C 63.101562 19.652344 62.992188 19.234375 62.859375 18.832031 L 62.832031 18.808594 L 62.832031 18.761719 C 62.804688 18.683594 62.78125 18.601562 62.753906 18.523438 C 62.566406 18.03125 62.332031 17.5625 62.011719 17.171875 C 61.695312 16.78125 61.289062 16.472656 60.824219 16.261719 C 60.359375 16.050781 59.847656 15.925781 59.328125 15.875 C 58.367188 15.777344 57.382812 15.921875 56.386719 16.089844 C 56.429688 16.363281 56.480469 16.640625 56.515625 16.917969 C 56.558594 17.269531 56.609375 17.621094 56.632812 17.976562 C 56.648438 18.332031 56.652344 18.6875 56.632812 19.042969 C 56.597656 19.398438 56.550781 19.753906 56.460938 20.105469 C 56.335938 19.761719 56.253906 19.414062 56.183594 19.074219 C 56.105469 18.726562 56.042969 18.386719 56 18.042969 C 55.941406 17.699219 55.898438 17.359375 55.851562 17.015625 C 55.800781 16.671875 55.738281 16.332031 55.679688 15.992188 C 55.417969 14.632812 55.058594 13.292969 54.601562 11.988281 C 54.140625 10.683594 53.597656 9.410156 52.960938 8.179688 C 52.324219 6.953125 51.597656 5.773438 50.785156 4.65625 L 50.480469 4.238281 L 50.441406 4.183594 C 50.429688 4.164062 50.429688 4.167969 50.421875 4.15625 C 50.410156 4.140625 50.398438 4.132812 50.386719 4.121094 C 50.359375 4.101562 50.328125 4.089844 50.292969 4.085938 C 50.222656 4.074219 50.144531 4.09375 50.09375 4.136719 C 50.070312 4.160156 50.050781 4.1875 50.035156 4.222656 C 50.007812 4.296875 49.980469 4.371094 49.953125 4.445312 C 49.90625 4.601562 49.867188 4.757812 49.839844 4.910156 L 49.828125 4.96875 C 49.828125 4.976562 49.828125 4.984375 49.828125 4.996094 C 49.828125 5.015625 49.828125 5.03125 49.832031 5.050781 C 49.832031 5.066406 49.839844 5.085938 49.847656 5.101562 C 49.855469 5.121094 49.855469 5.121094 49.886719 5.167969 C 50.070312 5.472656 50.261719 5.769531 50.4375 6.078125 C 51.15625 7.296875 51.800781 8.558594 52.347656 9.863281 C 52.898438 11.164062 53.367188 12.5 53.753906 13.855469 C 54.140625 15.210938 54.453125 16.597656 54.460938 18.019531 C 53.996094 16.679688 53.675781 15.332031 53.277344 14 C 52.867188 12.667969 52.375 11.367188 51.8125 10.09375 C 51.246094 8.832031 50.597656 7.609375 49.882812 6.429688 C 49.429688 7.488281 48.230469 9.605469 45.382812 11.574219 C 45.6875 11.808594 45.988281 12.042969 46.289062 12.28125 C 47.089844 12.90625 47.875 13.550781 48.644531 14.214844 C 49.414062 14.878906 50.171875 15.550781 50.921875 16.242188 C 51.65625 16.941406 52.449219 17.585938 52.96875 18.507812 C 52.035156 18.015625 51.355469 17.269531 50.589844 16.609375 C 49.835938 15.9375 49.070312 15.28125 48.292969 14.636719 C 47.515625 13.992188 46.726562 13.359375 45.933594 12.742188 C 45.53125 12.433594 45.132812 12.125 44.726562 11.824219 L 44.425781 11.597656 C 44.398438 11.574219 44.386719 11.570312 44.367188 11.558594 C 44.351562 11.546875 44.335938 11.542969 44.320312 11.53125 C 44.285156 11.519531 44.25 11.503906 44.210938 11.5 C 44.058594 11.472656 43.898438 11.53125 43.800781 11.644531 C 43.691406 11.765625 43.65625 11.921875 43.691406 12.070312 C 43.710938 12.144531 43.75 12.210938 43.800781 12.269531 C 43.8125 12.28125 43.832031 12.292969 43.84375 12.304688 L 43.917969 12.367188 L 44.0625 12.488281 C 44.457031 12.804688 44.851562 13.132812 45.238281 13.457031 C 46.019531 14.109375 46.785156 14.777344 47.535156 15.460938 C 48.289062 16.140625 49.035156 16.832031 49.769531 17.535156 C 50.132812 17.886719 50.503906 18.226562 50.847656 18.605469 C 51.191406 18.980469 51.515625 19.378906 51.78125 19.828125 C 51.328125 19.5625 50.929688 19.25 50.542969 18.921875 C 50.15625 18.59375 49.796875 18.238281 49.425781 17.898438 C 48.683594 17.210938 47.933594 16.535156 47.171875 15.875 C 46.410156 15.210938 45.640625 14.558594 44.863281 13.910156 C 44.636719 13.722656 44.402344 13.535156 44.175781 13.347656 C 44.050781 14.472656 43.558594 16.976562 41.617188 19.710938 C 41.945312 19.777344 42.269531 19.84375 42.597656 19.910156 C 43.589844 20.101562 44.582031 20.28125 45.578125 20.453125 C 46.574219 20.621094 47.574219 20.773438 48.574219 20.914062 C 49.074219 20.988281 49.578125 21.039062 50.074219 21.128906 C 50.574219 21.222656 51.070312 21.332031 51.558594 21.515625 C 51.042969 21.59375 50.53125 21.59375 50.023438 21.566406 C 49.515625 21.539062 49.011719 21.46875 48.511719 21.410156 C 47.503906 21.285156 46.496094 21.148438 45.492188 20.996094 C 44.488281 20.847656 43.488281 20.679688 42.492188 20.488281 C 41.992188 20.394531 41.492188 20.296875 40.996094 20.191406 L 40.808594 20.15625 L 40.714844 20.136719 C 40.695312 20.136719 40.679688 20.128906 40.65625 20.128906 C 40.582031 20.125 40.503906 20.140625 40.4375 20.167969 C 40.296875 20.234375 40.199219 20.363281 40.175781 20.523438 C 40.148438 20.671875 40.207031 20.835938 40.324219 20.933594 C 40.351562 20.960938 40.386719 20.976562 40.417969 20.996094 C 40.433594 21.003906 40.453125 21.011719 40.46875 21.015625 C 40.488281 21.023438 40.5 21.027344 40.535156 21.035156 L 40.902344 21.128906 C 41.390625 21.25 41.882812 21.363281 42.375 21.476562 C 43.359375 21.699219 44.34375 21.910156 45.335938 22.105469 C 46.324219 22.296875 47.320312 22.476562 48.316406 22.632812 C 49.3125 22.804688 50.320312 22.863281 51.292969 23.269531 C 50.25 23.453125 49.25 23.246094 48.242188 23.117188 C 47.238281 22.980469 46.234375 22.820312 45.234375 22.644531 C 44.234375 22.46875 43.238281 22.269531 42.246094 22.046875 C 41.871094 21.964844 41.496094 21.878906 41.125 21.789062 C 41.199219 22.851562 41.257812 25.683594 40.089844 28.519531 C 41.421875 28.324219 42.75 28.058594 44.058594 27.703125 C 45.394531 27.335938 46.714844 26.890625 48 26.363281 C 49.285156 25.828125 50.53125 25.222656 51.863281 24.734375 C 50.757812 25.628906 49.488281 26.265625 48.195312 26.824219 C 46.898438 27.386719 45.570312 27.867188 44.214844 28.265625 C 42.859375 28.667969 41.472656 28.972656 40.074219 29.1875 C 39.726562 29.246094 39.375 29.285156 39.023438 29.332031 C 38.96875 29.339844 38.96875 29.339844 38.945312 29.347656 C 38.925781 29.351562 38.910156 29.359375 38.894531 29.367188 C 38.878906 29.375 38.863281 29.386719 38.847656 29.398438 C 38.84375 29.402344 38.835938 29.410156 38.832031 29.417969 L 38.792969 29.460938 C 38.691406 29.582031 38.597656 29.707031 38.507812 29.84375 C 38.464844 29.910156 38.425781 29.980469 38.386719 30.050781 C 38.371094 30.082031 38.359375 30.113281 38.359375 30.148438 C 38.351562 30.214844 38.386719 30.289062 38.441406 30.332031 C 38.46875 30.355469 38.496094 30.375 38.527344 30.382812 C 38.546875 30.382812 38.5625 30.390625 38.578125 30.386719 C 38.59375 30.386719 38.589844 30.390625 38.613281 30.386719 L 38.675781 30.382812 L 39.195312 30.351562 C 40.574219 30.273438 41.949219 30.089844 43.300781 29.804688 C 44.65625 29.523438 45.984375 29.132812 47.285156 28.664062 C 48.585938 28.191406 49.851562 27.621094 51.066406 26.960938 C 51.363281 26.789062 51.667969 26.621094 51.96875 26.445312 C 52.261719 26.261719 52.558594 26.082031 52.855469 25.90625 C 53.148438 25.726562 53.453125 25.558594 53.765625 25.398438 C 54.078125 25.230469 54.394531 25.078125 54.742188 24.957031 C 54.523438 25.25 54.28125 25.511719 54.027344 25.765625 C 53.765625 26.003906 53.488281 26.230469 53.203125 26.441406 C 52.914062 26.648438 52.609375 26.828125 52.3125 27.019531 C 52.007812 27.207031 51.699219 27.375 51.390625 27.554688 C 50.523438 28.039062 49.625 28.476562 48.707031 28.867188 C 49.246094 29.589844 50.347656 31.277344 50.546875 33.253906 C 50.613281 33.878906 50.660156 34.71875 50.714844 35.605469 C 50.867188 38.074219 51.066406 41.40625 51.703125 42.542969 C 52.636719 42.328125 53.972656 41.976562 54.722656 41.578125 C 54.71875 41.550781 54.71875 41.523438 54.714844 41.492188 C 54.65625 40.941406 54.59375 40.390625 54.542969 39.835938 C 54.496094 39.277344 54.460938 38.722656 54.441406 38.164062 C 54.417969 37.605469 54.410156 37.058594 54.375 36.515625 C 54.339844 35.972656 54.277344 35.4375 54.160156 34.917969 C 53.929688 33.875 53.523438 32.871094 52.789062 32.023438 C 53.273438 32.304688 53.679688 32.734375 53.992188 33.214844 C 54.148438 33.453125 54.277344 33.714844 54.398438 33.976562 C 54.507812 34.238281 54.601562 34.511719 54.679688 34.789062 C 54.964844 35.898438 55.03125 37.039062 55.082031 38.136719 C 55.109375 38.683594 55.148438 39.230469 55.203125 39.777344 C 55.25 40.324219 55.308594 40.875 55.367188 41.425781 C 55.425781 41.972656 55.484375 42.527344 55.53125 43.082031 C 55.558594 43.359375 55.578125 43.636719 55.597656 43.917969 L 55.621094 44.335938 L 55.632812 44.542969 L 55.636719 44.574219 C 55.636719 44.582031 55.636719 44.589844 55.636719 44.59375 C 55.640625 44.609375 55.644531 44.621094 55.648438 44.628906 C 55.660156 44.65625 55.675781 44.671875 55.6875 44.6875 C 55.691406 44.691406 55.699219 44.691406 55.703125 44.699219 L 55.707031 44.703125 L 55.726562 44.714844 L 55.804688 44.757812 C 55.851562 44.789062 55.90625 44.8125 55.960938 44.835938 C 56.015625 44.863281 56.070312 44.882812 56.128906 44.902344 C 56.351562 44.980469 56.597656 45.015625 56.84375 45.019531 C 57.332031 45.023438 57.832031 44.890625 58.265625 44.644531 C 58.691406 44.402344 59.0625 44.03125 59.351562 43.609375 C 59.644531 43.1875 59.855469 42.703125 60.011719 42.203125 C 60.324219 41.195312 60.382812 40.101562 60.433594 39 C 60.460938 38.449219 60.488281 37.886719 60.546875 37.324219 C 60.601562 36.765625 60.679688 36.203125 60.824219 35.640625 C 60.964844 35.082031 61.183594 34.523438 61.507812 34.015625 C 61.589844 33.890625 61.675781 33.769531 61.773438 33.652344 L 62.035156 33.335938 C 62.199219 33.125 62.359375 32.910156 62.511719 32.6875 C 63.113281 31.800781 63.574219 30.820312 63.84375 29.789062 C 63.976562 29.273438 64.0625 28.746094 64.097656 28.214844 C 64.109375 28.078125 64.113281 27.949219 64.113281 27.816406 C 64.121094 27.679688 64.121094 27.546875 64.117188 27.410156 Z M 58.746094 42.136719 C 58.636719 42.449219 58.433594 42.730469 58.1875 42.949219 C 57.941406 43.171875 57.621094 43.296875 57.300781 43.328125 C 57.425781 43.144531 57.550781 42.996094 57.65625 42.84375 C 57.429688 42.429688 56.949219 41.261719 58.464844 40.851562 C 58.511719 40.667969 58.5625 40.480469 58.625 40.277344 C 58.796875 40.554688 58.871094 40.867188 58.890625 41.183594 C 58.910156 41.503906 58.863281 41.832031 58.746094 42.136719 Z M 60.917969 28.230469 C 60.894531 28.894531 60.792969 29.558594 60.609375 30.207031 C 60.425781 30.855469 60.15625 31.484375 59.785156 32.050781 C 59.601562 32.335938 59.382812 32.597656 59.148438 32.839844 C 58.90625 33.074219 58.644531 33.289062 58.355469 33.453125 C 58.511719 33.234375 58.664062 33.019531 58.800781 32.800781 C 58.640625 32.410156 58.21875 31.261719 58.148438 29.851562 C 58.074219 28.414062 59.882812 27.792969 60.507812 27.625 C 60.585938 27.171875 60.660156 26.714844 60.730469 26.25 C 60.902344 26.894531 60.9375 27.566406 60.917969 28.230469 Z M 66.28125 50.890625 C 64.808594 54.105469 62.699219 56.972656 60.101562 59.324219 C 60.007812 55.835938 59.390625 52.6875 58.34375 50.394531 C 56.933594 47.292969 54.703125 45.652344 51.902344 45.652344 C 45.179688 45.652344 40.6875 54.09375 39.746094 56.023438 C 38.996094 55.433594 38.25 54.867188 37.53125 54.316406 C 36.417969 53.472656 35.371094 52.675781 34.449219 51.894531 C 33.917969 51.445312 33.390625 50.9375 32.871094 50.378906 C 33.183594 49.617188 34.507812 46.609375 36.972656 43.652344 C 40.683594 39.199219 45.113281 36.925781 50.148438 36.890625 C 50.300781 39.195312 50.511719 41.515625 51.054688 42.6875 C 50.820312 42.738281 50.675781 42.765625 50.667969 42.765625 L 49.921875 42.90625 L 50.535156 43.347656 C 51.742188 44.21875 53.429688 44.371094 54.445312 44.371094 C 54.652344 44.371094 54.832031 44.363281 54.976562 44.355469 L 54.976562 44.371094 L 54.988281 44.574219 L 54.992188 44.648438 C 54.996094 44.675781 55 44.703125 55.007812 44.730469 C 55.019531 44.785156 55.035156 44.839844 55.058594 44.890625 C 55.101562 44.996094 55.171875 45.09375 55.257812 45.167969 C 55.277344 45.1875 55.304688 45.207031 55.324219 45.226562 L 55.363281 45.25 L 55.386719 45.265625 L 55.492188 45.324219 C 55.558594 45.367188 55.632812 45.402344 55.703125 45.433594 C 55.777344 45.46875 55.847656 45.492188 55.925781 45.519531 C 56.222656 45.621094 56.53125 45.667969 56.839844 45.671875 C 57.457031 45.675781 58.0625 45.515625 58.59375 45.214844 C 59.128906 44.90625 59.554688 44.46875 59.894531 43.980469 C 60.234375 43.492188 60.46875 42.949219 60.644531 42.398438 C 60.941406 41.441406 61.019531 40.460938 61.070312 39.503906 C 62.253906 40.953125 65.125 44.980469 66.28125 50.890625 Z M 34.4375 11.1875 C 33.902344 11.335938 33.378906 11.503906 32.859375 11.683594 C 30.472656 10.792969 28.027344 10.222656 25.589844 9.992188 L 25.570312 9.964844 L 25.40625 9.964844 L 25.40625 9.96875 C 25.304688 9.960938 25.199219 9.953125 25.097656 9.945312 L 25.070312 9.941406 C 25.027344 9.9375 24.984375 9.917969 24.957031 9.886719 C 24.808594 9.738281 24.675781 9.5625 24.554688 9.363281 C 24.507812 9.285156 24.535156 9.214844 24.550781 9.1875 C 24.566406 9.160156 24.617188 9.097656 24.71875 9.097656 C 28.035156 9.097656 31.375 9.820312 34.4375 11.1875 Z M 47.769531 8.535156 C 47.507812 8.851562 47.210938 9.175781 46.867188 9.507812 C 44.167969 7.316406 41.234375 5.582031 38.132812 4.359375 C 38.074219 4.339844 38.023438 4.292969 37.996094 4.238281 C 37.882812 4.015625 37.792969 3.769531 37.722656 3.507812 C 37.691406 3.378906 37.765625 3.292969 37.796875 3.261719 C 37.828125 3.230469 37.921875 3.160156 38.050781 3.199219 C 41.574219 4.285156 44.925781 6.128906 47.769531 8.535156 Z M 45.292969 10.824219 C 45.144531 10.929688 44.988281 11.039062 44.828125 11.148438 L 44.785156 11.117188 C 44.765625 11.097656 44.71875 11.070312 44.6875 11.046875 C 44.648438 11.023438 44.609375 11.003906 44.570312 10.984375 C 44.488281 10.949219 44.402344 10.917969 44.316406 10.90625 C 43.96875 10.839844 43.585938 10.964844 43.351562 11.238281 C 43.117188 11.492188 43.015625 11.882812 43.113281 12.222656 C 43.15625 12.394531 43.25 12.554688 43.371094 12.679688 C 43.402344 12.714844 43.4375 12.742188 43.46875 12.769531 L 43.542969 12.832031 L 43.546875 12.835938 C 43.523438 13.335938 43.332031 15.480469 41.894531 18.03125 C 41.125 18.070312 38.21875 18.296875 34.753906 19.628906 C 31.085938 21.035156 26.105469 23.996094 23.203125 30.117188 C 20.742188 35.308594 20.441406 41.039062 22.316406 47.144531 C 24.230469 53.398438 27.703125 57.628906 28.71875 58.78125 C 33.507812 64.1875 35.273438 67.316406 35.847656 68.507812 C 22.949219 65.445312 13.324219 53.828125 13.324219 40 C 13.324219 23.84375 26.464844 10.703125 42.609375 10.703125 C 43.507812 10.699219 44.40625 10.742188 45.292969 10.824219 Z M 45.292969 10.824219 " fill-opacity="1" fill-rule="nonzero"/><path fill="#ffffff" d="M 54.816406 63.027344 C 54.832031 62.472656 54.832031 61.882812 54.820312 61.269531 C 56.328125 61.175781 57.679688 60.835938 58.753906 60.460938 C 57.53125 61.425781 56.214844 62.285156 54.816406 63.027344 Z M 59.023438 54.996094 C 57.878906 55.601562 56.246094 56.285156 54.320312 56.578125 C 54.613281 57.84375 54.753906 59.261719 54.804688 60.617188 C 56.699219 60.496094 58.339844 59.964844 59.457031 59.5 C 59.429688 58.390625 59.328125 56.75 59.023438 54.996094 Z M 56.816406 48.976562 C 56.097656 50.347656 54.917969 52.109375 53.117188 53.570312 C 53.464844 54.121094 53.789062 54.789062 54.054688 55.605469 C 54.089844 55.714844 54.121094 55.832031 54.15625 55.945312 C 56.121094 55.65625 57.78125 54.933594 58.898438 54.328125 C 58.515625 52.4375 57.875 50.484375 56.816406 48.976562 Z M 51.902344 46.304688 C 51.75 46.304688 51.601562 46.308594 51.453125 46.316406 C 51.550781 47.316406 51.558594 48.675781 51.179688 50.136719 C 51.191406 50.132812 51.203125 50.128906 51.210938 50.125 C 51.355469 50.074219 51.496094 50.019531 51.644531 49.96875 L 52.082031 49.84375 C 52.226562 49.800781 52.375 49.769531 52.523438 49.742188 C 52.675781 49.714844 52.824219 49.6875 52.972656 49.664062 C 52.421875 49.921875 51.875 50.148438 51.355469 50.441406 C 51.25 50.488281 51.148438 50.542969 51.050781 50.601562 C 51.046875 50.613281 51.042969 50.628906 51.039062 50.644531 L 50.996094 50.628906 C 50.859375 50.710938 50.71875 50.792969 50.578125 50.867188 C 50.40625 50.976562 50.226562 51.082031 50.050781 51.195312 C 50.746094 51.371094 51.804688 51.835938 52.742188 53.039062 C 54.558594 51.550781 55.710938 49.742188 56.378906 48.40625 C 55.304688 47.136719 53.855469 46.304688 51.902344 46.304688 Z M 50.804688 46.386719 C 49.042969 46.65625 47.445312 47.550781 46.054688 48.707031 C 46.722656 49.476562 47.519531 50.609375 48.039062 52.039062 C 48.441406 51.707031 48.859375 51.398438 49.292969 51.117188 L 49.292969 51.082031 L 49.34375 51.082031 C 49.421875 51.035156 49.496094 50.984375 49.574219 50.9375 C 49.828125 50.769531 50.105469 50.636719 50.371094 50.488281 C 50.398438 50.476562 50.421875 50.464844 50.445312 50.453125 L 50.417969 50.445312 C 50.90625 48.902344 50.910156 47.433594 50.804688 46.386719 Z M 45.5625 49.132812 C 44.289062 50.292969 43.207031 51.648438 42.351562 52.890625 C 43.183594 53.398438 44.230469 54.1875 45.132812 55.3125 C 45.277344 55.097656 45.425781 54.886719 45.578125 54.675781 C 45.761719 54.425781 45.949219 54.1875 46.140625 53.949219 C 46.339844 53.71875 46.539062 53.484375 46.75 53.261719 C 46.996094 53 47.25 52.746094 47.515625 52.5 C 47.03125 51.046875 46.230469 49.902344 45.5625 49.132812 Z M 41.992188 53.425781 C 41.089844 54.804688 40.496094 55.96875 40.269531 56.441406 C 41.28125 57.257812 42.285156 58.125 43.230469 59.050781 C 43.378906 58.632812 43.546875 58.234375 43.726562 57.832031 C 43.980469 57.273438 44.261719 56.730469 44.570312 56.203125 C 44.632812 56.101562 44.695312 55.996094 44.761719 55.894531 C 43.882812 54.734375 42.820312 53.933594 41.992188 53.425781 Z M 46.070312 63.550781 C 43.210938 66.347656 40.660156 68.042969 38.796875 69.046875 C 40.046875 69.210938 41.320312 69.296875 42.613281 69.296875 C 44.386719 69.296875 46.125 69.140625 47.8125 68.835938 C 47.644531 66.878906 47.007812 65.132812 46.070312 63.550781 Z M 41.886719 58.664062 C 38.691406 61.710938 35.898438 63.390625 34.007812 64.292969 C 35.796875 66.792969 36.449219 68.207031 36.640625 68.683594 C 36.988281 68.757812 37.34375 68.824219 37.699219 68.882812 C 39.566406 67.972656 42.433594 66.222656 45.714844 62.988281 C 44.679688 61.398438 43.34375 59.976562 41.886719 58.664062 Z M 37.136719 54.835938 C 37.078125 54.789062 37.019531 54.746094 36.960938 54.699219 C 34.742188 56.757812 32.496094 58.394531 30.265625 59.5625 C 31.65625 61.1875 32.757812 62.578125 33.621094 63.757812 C 35.457031 62.894531 38.21875 61.253906 41.398438 58.226562 C 40.019531 57.027344 38.550781 55.910156 37.136719 54.835938 Z M 34.027344 52.390625 C 33.492188 51.941406 32.976562 51.445312 32.476562 50.914062 C 30.375 52.371094 28.292969 53.511719 26.273438 54.300781 C 27.261719 55.9375 28.289062 57.3125 29.207031 58.347656 C 29.421875 58.589844 29.625 58.824219 29.828125 59.054688 C 32.023438 57.925781 34.246094 56.328125 36.4375 54.304688 C 35.578125 53.648438 34.765625 53.015625 34.027344 52.390625 Z M 29.671875 47.203125 C 27.222656 48.566406 25.21875 49.195312 23.859375 49.480469 C 24.480469 51.019531 25.191406 52.449219 25.9375 53.734375 C 27.917969 52.96875 29.96875 51.859375 32.035156 50.429688 C 31.167969 49.441406 30.363281 48.351562 29.671875 47.203125 Z M 27.863281 43.472656 C 27.84375 43.414062 27.824219 43.347656 27.800781 43.289062 C 25.445312 44.136719 23.585938 44.425781 22.332031 44.5 C 22.648438 46.019531 23.09375 47.484375 23.617188 48.867188 C 24.929688 48.601562 26.902344 48 29.339844 46.644531 C 28.753906 45.609375 28.253906 44.542969 27.863281 43.472656 Z M 26.902344 39.09375 C 26.714844 39.09375 26.527344 39.097656 26.347656 39.097656 C 24.375 39.097656 22.851562 38.859375 21.804688 38.609375 C 21.738281 40.402344 21.894531 42.160156 22.207031 43.859375 C 23.417969 43.792969 25.25 43.523438 27.597656 42.671875 C 27.265625 41.605469 26.996094 40.390625 26.902344 39.09375 Z M 27.46875 34.234375 C 25.769531 33.8125 24.242188 33.25 22.910156 32.5625 C 22.292969 34.363281 21.953125 36.171875 21.835938 37.949219 C 22.929688 38.21875 24.617188 38.488281 26.867188 38.441406 C 26.832031 37.09375 26.992188 35.671875 27.46875 34.234375 Z M 25.957031 26.84375 C 25.160156 27.886719 24.421875 29.0625 23.789062 30.394531 C 23.542969 30.910156 23.324219 31.425781 23.128906 31.945312 C 24.453125 32.636719 25.980469 33.199219 27.6875 33.621094 C 27.890625 33.109375 28.136719 32.59375 28.425781 32.082031 C 28.863281 31.320312 29.34375 30.628906 29.855469 30 C 27.992188 28.820312 26.738281 27.683594 25.957031 26.84375 Z M 31.171875 22.132812 C 29.527344 23.164062 27.851562 24.527344 26.367188 26.328125 C 27.125 27.152344 28.378906 28.304688 30.28125 29.5 C 31.351562 28.289062 32.53125 27.332031 33.703125 26.578125 C 32.378906 24.769531 31.609375 23.222656 31.171875 22.132812 Z M 37.074219 19.539062 C 36.402344 19.730469 35.695312 19.960938 34.964844 20.242188 C 33.960938 20.628906 32.863281 21.132812 31.730469 21.792969 C 32.148438 22.851562 32.910156 24.40625 34.257812 26.234375 C 35.464844 25.515625 36.644531 25.003906 37.652344 24.648438 C 37.238281 22.832031 37.042969 21.117188 37.074219 19.539062 Z M 37.726562 19.363281 C 37.679688 20.921875 37.863281 22.625 38.273438 24.441406 C 39.277344 24.125 40.058594 23.964844 40.453125 23.898438 C 40.523438 22.816406 40.472656 21.980469 40.441406 21.625 L 40.390625 21.613281 C 40.363281 21.609375 40.316406 21.59375 40.273438 21.582031 C 40.230469 21.566406 40.191406 21.546875 40.152344 21.53125 C 40.070312 21.488281 39.996094 21.441406 39.929688 21.382812 C 39.660156 21.15625 39.515625 20.78125 39.574219 20.429688 C 39.625 20.085938 39.863281 19.757812 40.1875 19.617188 C 40.347656 19.542969 40.53125 19.511719 40.703125 19.527344 C 40.75 19.527344 40.792969 19.539062 40.835938 19.546875 L 40.898438 19.558594 C 41.109375 19.277344 41.304688 18.992188 41.484375 18.714844 C 40.746094 18.777344 39.390625 18.941406 37.726562 19.363281 Z M 38.902344 5.382812 C 39.09375 6.273438 39.292969 7.988281 38.773438 10.296875 C 40.03125 10.132812 41.3125 10.050781 42.609375 10.050781 C 43.757812 10.050781 44.910156 10.117188 46.039062 10.246094 C 46.15625 10.148438 46.273438 10.050781 46.382812 9.953125 C 44.054688 8.070312 41.542969 6.535156 38.902344 5.382812 Z M 26.039062 10.691406 C 26.40625 11.367188 26.933594 12.609375 27.117188 14.382812 C 28.632812 13.460938 30.234375 12.675781 31.90625 12.03125 C 29.972656 11.367188 28.003906 10.917969 26.039062 10.691406 Z M 49.742188 5.777344 C 48.179688 9.464844 45.015625 11.5625 45.015625 11.5625 L 52.972656 18.503906 C 53.582031 18.175781 54.464844 18.019531 54.464844 18.019531 C 53.476562 10.640625 49.742188 5.777344 49.742188 5.777344 Z M 51.78125 19.820312 L 44.019531 12.730469 C 44.019531 12.730469 43.210938 17.125 41.222656 19.820312 L 51.558594 21.511719 Z M 40.753906 21.421875 C 41.601562 24.902344 39.601562 28.917969 39.601562 28.917969 C 45.480469 28.496094 51.867188 24.730469 51.867188 24.730469 L 51.292969 23.269531 Z M 13.324219 45.019531 C 17.285156 62.730469 30.265625 66.5625 30.265625 66.5625 C 17.1875 58.859375 17.414062 36.242188 17.414062 36.242188 C 16.140625 40.277344 15.972656 45.019531 15.972656 45.019531 C 12.5 28.738281 22.332031 18.882812 22.332031 18.882812 C 10.683594 27.480469 13.324219 45.019531 13.324219 45.019531 Z M 46.769531 43.328125 C 46.324219 41.484375 46.386719 40.65625 46.386719 40.65625 C 43.332031 41.421875 41.484375 42.722656 41.484375 42.722656 C 43.253906 40.589844 46.769531 38.609375 46.769531 38.609375 C 38.527344 40.332031 34.433594 49.863281 34.433594 49.863281 C 39.511719 43.5625 46.769531 43.328125 46.769531 43.328125 Z M 59.328125 15.875 C 59.328125 15.875 61.851562 16.785156 62.148438 19.820312 C 62.445312 22.859375 62.65625 26.84375 62.65625 26.84375 C 62.65625 26.84375 62.277344 24.910156 61.429688 22.886719 C 61.429688 22.886719 62.859375 31.011719 61.191406 34.605469 L 63.335938 32.097656 L 64.4375 28.453125 L 64.121094 23.152344 L 62.828125 17.601562 L 61.429688 15.875 Z M 59.65625 46.261719 C 60.703125 47.796875 61.472656 49.558594 61.78125 51.394531 C 61.207031 50.425781 60.550781 49.625 59.550781 49.109375 C 60.578125 51.167969 61.269531 53.554688 61.199219 55.855469 C 62.390625 54.125 63.535156 52.203125 64.316406 50.257812 C 63.933594 47.726562 63.039062 45.277344 61.707031 43.097656 C 61.226562 44.382812 60.644531 45.308594 59.65625 46.261719 Z M 54.886719 43.140625 C 54.859375 42.847656 54.828125 42.554688 54.796875 42.265625 C 53.890625 42.679688 52.523438 43.027344 51.640625 43.222656 C 52.847656 43.738281 54.300781 43.738281 54.929688 43.703125 C 54.917969 43.515625 54.902344 43.328125 54.886719 43.140625 Z M 54.886719 43.140625 " fill-opacity="1" fill-rule="nonzero"/><path fill="#36e9fd" d="M 70.359375 40.019531 C 70.359375 53.457031 60.886719 64.683594 48.253906 67.375 C 48.167969 66.960938 48.0625 66.558594 47.9375 66.160156 C 53.585938 65.011719 58.792969 61.992188 62.632812 57.636719 C 66.589844 53.144531 68.945312 47.390625 69.261719 41.4375 L 69.28125 41.097656 L 69.347656 40 L 64.316406 40 L 65.878906 37.097656 C 66.226562 37.855469 67.035156 38.898438 68.796875 38.898438 L 69.277344 38.898438 L 69.261719 38.554688 C 69 33.691406 67.410156 28.996094 64.660156 24.96875 C 64.609375 24.386719 64.546875 23.800781 64.464844 23.21875 C 64.445312 23.0625 64.421875 22.90625 64.398438 22.75 C 68.128906 27.503906 70.359375 33.5 70.359375 40.019531 Z M 70.359375 40.019531 " fill-opacity="1" fill-rule="nonzero"/><path fill="#05001e" d="M 63.582031 18.421875 L 63.570312 18.394531 C 63.554688 18.339844 63.535156 18.292969 63.515625 18.238281 C 63.300781 17.660156 63.042969 17.179688 62.738281 16.78125 C 63.433594 12.613281 63.195312 8.292969 62.054688 4.28125 C 61.949219 3.910156 61.660156 3.636719 61.28125 3.542969 C 61.199219 3.523438 61.117188 3.515625 61.03125 3.515625 C 60.738281 3.515625 60.464844 3.636719 60.269531 3.851562 C 60.042969 4.097656 59.851562 4.355469 59.699219 4.617188 C 59.570312 4.839844 59.527344 5.105469 59.582031 5.355469 L 59.617188 5.550781 C 59.386719 5.820312 58.820312 6.40625 57.859375 7.027344 C 56.796875 7.714844 55.558594 8.25 54.175781 8.621094 C 54.039062 8.339844 53.898438 8.054688 53.75 7.769531 C 53.074219 6.484375 52.316406 5.261719 51.488281 4.136719 L 51.128906 3.660156 C 51.117188 3.640625 51.097656 3.617188 51.078125 3.59375 L 51.0625 3.574219 C 51.003906 3.503906 50.929688 3.449219 50.875 3.414062 C 50.742188 3.320312 50.585938 3.257812 50.421875 3.234375 C 50.371094 3.226562 50.316406 3.222656 50.265625 3.222656 C 49.984375 3.222656 49.71875 3.328125 49.527344 3.511719 C 49.410156 3.621094 49.316406 3.757812 49.253906 3.917969 C 49.21875 4.007812 49.191406 4.101562 49.160156 4.195312 C 49.097656 4.398438 49.054688 4.585938 49.023438 4.777344 L 49.015625 4.847656 C 49.007812 4.886719 49.003906 4.925781 49.003906 4.96875 C 49 5.050781 49.007812 5.132812 49.023438 5.207031 C 49.039062 5.277344 49.0625 5.355469 49.097656 5.433594 C 49.125 5.496094 49.171875 5.566406 49.207031 5.625 C 49.230469 5.664062 49.257812 5.703125 49.285156 5.742188 C 49.160156 6.089844 48.835938 6.859375 48.152344 7.808594 C 45.25 5.390625 41.84375 3.535156 38.285156 2.441406 C 38.183594 2.40625 38.078125 2.390625 37.972656 2.390625 C 37.703125 2.390625 37.445312 2.496094 37.246094 2.6875 C 36.964844 2.953125 36.859375 3.335938 36.953125 3.707031 C 37.035156 4.03125 37.148438 4.332031 37.289062 4.601562 C 37.402344 4.828125 37.597656 5.007812 37.839844 5.105469 C 37.898438 5.125 37.953125 5.148438 38.011719 5.171875 C 38.179688 5.769531 38.574219 7.617188 37.949219 10.265625 C 37.132812 10.394531 36.285156 10.5625 35.433594 10.769531 C 32.09375 9.15625 28.386719 8.300781 24.71875 8.300781 C 24.355469 8.300781 24.027344 8.492188 23.855469 8.800781 C 23.679688 9.113281 23.6875 9.480469 23.875 9.777344 C 24.019531 10.019531 24.191406 10.246094 24.386719 10.445312 C 24.53125 10.59375 24.722656 10.691406 24.929688 10.726562 L 25.15625 10.773438 C 25.4375 11.21875 26.152344 12.542969 26.332031 14.699219 C 17.6875 20.285156 12.53125 29.738281 12.53125 40 C 12.53125 56.59375 26.023438 70.09375 42.613281 70.09375 C 59.199219 70.09375 72.695312 56.59375 72.695312 40 C 72.695312 31.796875 69.457031 24.136719 63.582031 18.421875 Z M 49.84375 6.871094 C 50.484375 8.789062 51.050781 10.742188 51.527344 12.691406 C 51.007812 11.890625 50.359375 11.097656 49.664062 10.421875 L 49.261719 10.035156 L 49.421875 10.574219 C 49.6875 11.472656 49.785156 12.464844 49.710938 13.4375 L 49.703125 13.511719 L 49.757812 13.558594 C 50.253906 14.011719 50.726562 14.429688 51.183594 14.832031 C 52.195312 15.726562 54.464844 18.023438 54.464844 18.023438 C 54.453125 16.492188 54.242188 15.039062 53.898438 13.816406 C 53.515625 12.480469 53.042969 11.128906 52.484375 9.804688 C 51.953125 8.535156 51.304688 7.253906 50.566406 6.003906 C 50.453125 5.800781 50.328125 5.605469 50.210938 5.414062 C 50.144531 5.308594 50.078125 5.199219 50.011719 5.09375 C 49.988281 5.054688 49.988281 5.054688 49.980469 5.039062 C 49.976562 5.035156 49.976562 5.027344 49.972656 5.019531 L 49.972656 4.992188 L 49.976562 4.980469 L 49.980469 4.933594 C 50.007812 4.789062 50.046875 4.636719 50.09375 4.492188 C 50.117188 4.417969 50.144531 4.347656 50.171875 4.277344 C 50.179688 4.261719 50.183594 4.25 50.195312 4.238281 C 50.203125 4.234375 50.226562 4.226562 50.25 4.226562 C 50.257812 4.226562 50.261719 4.226562 50.269531 4.226562 C 50.277344 4.226562 50.285156 4.230469 50.285156 4.230469 C 50.285156 4.230469 50.285156 4.230469 50.285156 4.226562 L 50.296875 4.234375 L 50.3125 4.253906 L 50.320312 4.265625 L 50.664062 4.738281 C 51.480469 5.863281 52.210938 7.042969 52.832031 8.242188 C 53.445312 9.429688 53.996094 10.703125 54.464844 12.03125 C 54.917969 13.332031 55.277344 14.671875 55.53125 16.011719 C 55.550781 16.128906 55.574219 16.242188 55.59375 16.355469 C 55.632812 16.578125 55.675781 16.804688 55.707031 17.03125 C 55.75 17.367188 55.800781 17.710938 55.851562 18.058594 C 55.898438 18.398438 55.960938 18.738281 56.039062 19.097656 C 56.121094 19.515625 56.210938 19.84375 56.320312 20.152344 L 56.484375 20.597656 L 56.601562 20.136719 C 56.683594 19.824219 56.738281 19.488281 56.78125 19.042969 C 56.796875 18.710938 56.796875 18.359375 56.78125 17.960938 C 56.761719 17.691406 56.730469 17.421875 56.695312 17.160156 C 56.683594 17.070312 56.671875 16.984375 56.660156 16.894531 C 56.628906 16.660156 56.589844 16.433594 56.550781 16.203125 C 57.238281 16.089844 57.960938 15.988281 58.671875 15.988281 C 58.890625 15.988281 59.105469 15.996094 59.308594 16.015625 C 59.839844 16.070312 60.328125 16.195312 60.757812 16.394531 C 61.210938 16.597656 61.59375 16.890625 61.894531 17.261719 C 62.175781 17.597656 62.410156 18.027344 62.613281 18.570312 C 62.625 18.609375 62.671875 18.75 62.683594 18.78125 L 62.726562 18.910156 C 62.839844 19.261719 62.945312 19.65625 63.050781 20.113281 C 63.296875 21.152344 63.5 22.234375 63.648438 23.328125 C 63.796875 24.382812 63.894531 25.480469 63.941406 26.589844 L 63.941406 26.605469 C 63.953125 26.875 63.960938 27.140625 63.964844 27.410156 C 63.96875 27.546875 63.96875 27.675781 63.964844 27.808594 C 63.964844 27.941406 63.957031 28.070312 63.949219 28.195312 C 63.914062 28.714844 63.832031 29.234375 63.699219 29.742188 C 63.441406 30.738281 63 31.699219 62.386719 32.597656 C 62.246094 32.804688 62.09375 33.015625 61.917969 33.234375 L 61.660156 33.554688 C 61.5625 33.671875 61.476562 33.792969 61.382812 33.933594 C 61.078125 34.410156 60.84375 34.972656 60.683594 35.597656 C 60.523438 36.222656 60.449219 36.839844 60.402344 37.308594 C 60.34375 37.871094 60.316406 38.449219 60.289062 38.988281 C 60.238281 40.054688 60.183594 41.15625 59.871094 42.152344 C 59.703125 42.6875 59.488281 43.144531 59.230469 43.523438 C 58.933594 43.953125 58.578125 44.292969 58.195312 44.511719 C 57.789062 44.742188 57.316406 44.867188 56.871094 44.867188 L 56.847656 44.867188 C 56.605469 44.867188 56.382812 44.828125 56.175781 44.757812 C 56.117188 44.738281 56.074219 44.722656 56.019531 44.695312 C 55.976562 44.679688 55.929688 44.65625 55.878906 44.625 L 55.804688 44.585938 L 55.785156 44.574219 L 55.78125 44.535156 L 55.769531 44.324219 L 55.742188 43.902344 C 55.726562 43.621094 55.703125 43.339844 55.679688 43.066406 C 55.632812 42.523438 55.578125 41.992188 55.511719 41.40625 L 55.488281 41.152344 C 55.441406 40.695312 55.390625 40.222656 55.347656 39.761719 C 55.289062 39.128906 55.25 38.609375 55.226562 38.125 C 55.175781 36.972656 55.109375 35.847656 54.820312 34.746094 C 54.742188 34.464844 54.648438 34.183594 54.53125 33.910156 C 54.433594 33.6875 54.292969 33.398438 54.117188 33.128906 C 53.773438 32.597656 53.070312 32.144531 52.59375 31.867188 C 52.59375 31.867188 53.761719 33.785156 54.015625 34.941406 C 54.09375 35.289062 54.152344 35.667969 54.195312 36.097656 C 54.125 36.410156 53.503906 39.355469 53.523438 41.140625 C 53.289062 41.265625 52.53125 41.632812 51.574219 41.808594 C 51.148438 40.347656 50.984375 37.609375 50.859375 35.589844 L 50.859375 35.566406 C 50.804688 34.6875 50.757812 33.855469 50.691406 33.230469 C 50.507812 31.378906 49.554688 29.789062 48.933594 28.921875 C 49.808594 28.542969 50.660156 28.125 51.460938 27.675781 C 51.578125 27.605469 51.691406 27.542969 51.804688 27.476562 C 51.996094 27.367188 52.191406 27.253906 52.386719 27.136719 C 52.472656 27.082031 52.5625 27.023438 52.648438 26.96875 C 52.859375 26.835938 53.078125 26.703125 53.285156 26.550781 C 53.617188 26.304688 53.882812 26.085938 54.125 25.863281 C 54.4375 25.554688 54.660156 25.300781 54.855469 25.035156 L 55.136719 24.652344 L 54.6875 24.8125 C 54.378906 24.917969 54.070312 25.058594 53.695312 25.257812 C 53.367188 25.425781 53.058594 25.597656 52.773438 25.773438 C 52.472656 25.949219 52.167969 26.136719 51.882812 26.308594 C 51.691406 26.425781 51.496094 26.535156 51.304688 26.644531 C 51.199219 26.703125 51.089844 26.761719 50.988281 26.820312 C 49.785156 27.476562 48.519531 28.046875 47.230469 28.515625 C 45.894531 28.996094 44.5625 29.378906 43.265625 29.652344 C 41.929688 29.933594 40.558594 30.117188 39.179688 30.195312 L 38.660156 30.226562 L 38.609375 30.234375 C 38.601562 30.230469 38.59375 30.230469 38.582031 30.230469 C 38.578125 30.230469 38.574219 30.230469 38.570312 30.230469 L 38.550781 30.226562 C 38.550781 30.226562 38.542969 30.226562 38.527344 30.210938 C 38.507812 30.191406 38.496094 30.164062 38.496094 30.144531 C 38.496094 30.136719 38.5 30.125 38.507812 30.109375 C 38.542969 30.042969 38.585938 29.976562 38.625 29.910156 C 38.714844 29.777344 38.804688 29.652344 38.898438 29.546875 L 38.945312 29.492188 C 38.949219 29.488281 38.949219 29.488281 38.953125 29.484375 L 38.972656 29.476562 L 38.976562 29.472656 C 38.992188 29.46875 38.992188 29.46875 39.035156 29.464844 C 39.15625 29.449219 39.277344 29.433594 39.402344 29.417969 C 39.628906 29.386719 39.863281 29.359375 40.089844 29.320312 C 41.523438 29.097656 42.925781 28.785156 44.25 28.394531 C 45.625 27.984375 46.96875 27.496094 48.246094 26.945312 C 49.40625 26.441406 50.660156 25.683594 51.855469 24.71875 C 51.855469 24.71875 50.136719 25.253906 49.339844 25.605469 C 48.882812 25.808594 48.40625 26.015625 47.9375 26.214844 C 46.691406 26.722656 45.371094 27.171875 44.007812 27.546875 C 42.835938 27.867188 41.59375 28.125 40.308594 28.320312 C 41.113281 26.257812 41.296875 24.230469 41.296875 22.816406 C 42.054688 23.054688 45.117188 24.03125 45.117188 24.03125 C 45.058594 24.03125 45 24.035156 44.941406 24.035156 C 44.589844 24.046875 44.226562 24.058594 43.882812 24.058594 L 43.410156 24.058594 L 43.800781 24.328125 C 44.476562 24.792969 45.117188 25.351562 45.808594 26.085938 L 45.875 26.152344 L 45.964844 26.125 C 46.871094 25.820312 47.792969 25.355469 48.679688 24.75 C 48.445312 25.160156 48.054688 25.699219 48.054688 25.699219 C 48.59375 25.472656 50.4375 24.625 51.402344 23.34375 L 51.515625 23.191406 L 51.34375 23.117188 C 50.597656 22.804688 49.828125 22.691406 49.082031 22.585938 C 48.835938 22.550781 48.582031 22.511719 48.332031 22.46875 C 47.363281 22.316406 46.363281 22.136719 45.355469 21.941406 C 44.265625 21.726562 43.296875 21.519531 42.402344 21.316406 C 41.996094 21.222656 41.464844 21.101562 40.929688 20.964844 L 40.558594 20.875 C 40.542969 20.871094 40.535156 20.867188 40.523438 20.863281 L 40.492188 20.851562 C 40.488281 20.851562 40.472656 20.84375 40.472656 20.84375 C 40.449219 20.832031 40.429688 20.820312 40.410156 20.800781 C 40.335938 20.738281 40.296875 20.628906 40.3125 20.53125 C 40.328125 20.421875 40.394531 20.332031 40.488281 20.285156 C 40.527344 20.269531 40.570312 20.257812 40.613281 20.257812 C 40.621094 20.257812 40.628906 20.257812 40.636719 20.261719 L 40.652344 20.261719 C 40.664062 20.261719 40.675781 20.265625 40.6875 20.265625 L 40.769531 20.285156 L 40.953125 20.320312 C 41.421875 20.417969 41.910156 20.511719 42.449219 20.613281 C 43.414062 20.800781 44.425781 20.972656 45.457031 21.125 C 46.476562 21.277344 47.492188 21.417969 48.480469 21.539062 C 48.59375 21.550781 48.707031 21.566406 48.824219 21.582031 C 49.207031 21.628906 50.125 21.636719 50.585938 21.644531 C 50.949219 21.648438 51.363281 21.546875 51.679688 21.5 C 51.679688 21.5 49.445312 20.867188 49.136719 20.828125 C 48.949219 20.800781 48.769531 20.777344 48.582031 20.75 C 47.605469 20.613281 46.601562 20.460938 45.59375 20.289062 C 44.589844 20.117188 43.589844 19.933594 42.617188 19.75 C 42.382812 19.703125 42.144531 19.652344 41.914062 19.605469 L 41.855469 19.59375 C 43.457031 17.269531 44.035156 15.132812 44.242188 13.851562 C 44.964844 15.121094 45.566406 16.464844 46.03125 17.851562 L 46.050781 17.914062 L 46.113281 17.941406 C 46.886719 18.25 47.53125 18.546875 48.160156 18.984375 L 48.367188 19.128906 L 48.390625 18.878906 C 48.421875 18.585938 48.375 18.296875 48.308594 18.011719 C 48.539062 18.335938 48.730469 18.707031 48.878906 19.121094 L 48.914062 19.222656 L 49.023438 19.21875 C 49.082031 19.21875 49.144531 19.214844 49.207031 19.214844 C 50.078125 19.214844 51.859375 19.890625 51.859375 19.890625 C 51.621094 19.492188 51.359375 18.941406 50.949219 18.492188 C 50.683594 18.199219 50.394531 17.921875 50.117188 17.65625 C 50.03125 17.574219 49.945312 17.496094 49.863281 17.414062 C 49.140625 16.726562 48.390625 16.027344 47.628906 15.339844 C 46.875 14.65625 46.101562 13.980469 45.328125 13.335938 C 44.898438 12.972656 44.511719 12.65625 44.152344 12.363281 L 44.003906 12.242188 L 43.933594 12.183594 C 43.929688 12.179688 43.921875 12.175781 43.914062 12.167969 L 43.902344 12.152344 C 43.867188 12.117188 43.84375 12.070312 43.828125 12.023438 C 43.800781 11.917969 43.832031 11.8125 43.90625 11.730469 C 43.960938 11.667969 44.046875 11.628906 44.128906 11.628906 C 44.144531 11.628906 44.160156 11.628906 44.1875 11.636719 C 44.203125 11.636719 44.222656 11.644531 44.253906 11.652344 C 44.261719 11.660156 44.265625 11.660156 44.277344 11.667969 L 44.300781 11.683594 C 44.308594 11.6875 44.316406 11.691406 44.332031 11.703125 L 44.632812 11.929688 C 44.988281 12.191406 45.367188 12.484375 45.835938 12.847656 C 46.585938 13.425781 47.355469 14.046875 48.195312 14.738281 C 48.988281 15.398438 49.761719 16.058594 50.488281 16.710938 C 50.675781 16.871094 50.863281 17.042969 51.046875 17.210938 C 51.601562 17.71875 52.175781 18.246094 52.894531 18.625 L 53.335938 18.859375 L 53.09375 18.421875 C 52.652344 17.640625 52.015625 17.054688 51.402344 16.488281 C 51.273438 16.367188 51.144531 16.246094 51.011719 16.125 C 50.261719 15.429688 49.492188 14.746094 48.734375 14.09375 C 47.996094 13.457031 47.222656 12.824219 46.375 12.15625 C 46.125 11.957031 45.875 11.765625 45.625 11.570312 C 48.09375 9.835938 49.292969 7.996094 49.84375 6.871094 Z M 54.972656 61.40625 C 55.972656 61.332031 56.984375 61.148438 57.992188 60.859375 C 57.035156 61.5625 56.019531 62.207031 54.96875 62.777344 C 54.976562 62.324219 54.980469 61.863281 54.972656 61.40625 Z M 54.945312 60.460938 C 54.882812 59.035156 54.730469 57.773438 54.496094 56.699219 C 56.324219 56.398438 57.875 55.75 58.910156 55.21875 C 59.183594 56.851562 59.277344 58.371094 59.304688 59.402344 C 58.285156 59.820312 56.734375 60.324219 54.945312 60.460938 Z M 51.390625 49.902344 C 51.636719 48.808594 51.714844 47.628906 51.613281 46.457031 C 51.703125 46.453125 51.800781 46.449219 51.902344 46.449219 C 53.613281 46.449219 55.058594 47.113281 56.203125 48.429688 C 55.574219 49.664062 54.480469 51.386719 52.765625 52.828125 C 51.964844 51.851562 51.089844 51.378906 50.40625 51.144531 C 50.488281 51.09375 50.570312 51.042969 50.644531 50.996094 C 50.769531 50.929688 50.894531 50.859375 51.011719 50.789062 L 51.171875 50.699219 C 51.246094 50.660156 51.328125 50.613281 51.425781 50.570312 C 51.789062 50.367188 52.953125 49.71875 53.117188 49.640625 C 53.117188 49.640625 51.457031 49.878906 51.390625 49.902344 Z M 56.835938 49.257812 C 57.667969 50.523438 58.304688 52.199219 58.734375 54.25 C 57.707031 54.796875 56.128906 55.484375 54.261719 55.78125 C 54.238281 55.707031 54.21875 55.628906 54.195312 55.558594 C 53.957031 54.832031 53.664062 54.171875 53.3125 53.601562 C 55.023438 52.183594 56.15625 50.5 56.835938 49.257812 Z M 58.476562 50.335938 C 57.039062 47.175781 54.765625 45.503906 51.902344 45.503906 C 45.242188 45.503906 40.722656 53.730469 39.695312 55.796875 C 39.039062 55.28125 38.386719 54.785156 37.753906 54.304688 L 37.621094 54.199219 C 36.621094 53.445312 35.492188 52.585938 34.542969 51.78125 C 34.039062 51.355469 33.535156 50.875 33.042969 50.347656 C 33.4375 49.40625 34.742188 46.554688 37.085938 43.742188 C 40.734375 39.367188 45.082031 37.113281 50.011719 37.039062 C 50.15625 39.21875 50.359375 41.371094 50.847656 42.578125 C 50.761719 42.597656 50.636719 42.621094 50.636719 42.621094 C 50.636719 42.621094 50.636719 42.621094 50.640625 42.621094 L 49.558594 42.824219 L 50.453125 43.46875 C 51.714844 44.378906 53.496094 44.515625 54.445312 44.515625 C 54.578125 44.515625 54.710938 44.511719 54.839844 44.507812 L 54.847656 44.664062 C 54.851562 44.695312 54.859375 44.726562 54.863281 44.765625 C 54.882812 44.835938 54.902344 44.894531 54.925781 44.949219 C 54.980469 45.074219 55.0625 45.1875 55.160156 45.277344 C 55.179688 45.296875 55.203125 45.3125 55.222656 45.328125 L 55.246094 45.347656 L 55.289062 45.375 L 55.417969 45.449219 C 55.496094 45.5 55.574219 45.535156 55.640625 45.5625 C 55.722656 45.601562 55.804688 45.628906 55.878906 45.65625 C 56.179688 45.757812 56.503906 45.8125 56.839844 45.816406 L 56.878906 45.816406 C 57.496094 45.816406 58.113281 45.652344 58.667969 45.339844 C 59.175781 45.050781 59.628906 44.621094 60.019531 44.0625 C 60.335938 43.605469 60.585938 43.074219 60.785156 42.4375 C 61.050781 41.578125 61.144531 40.714844 61.199219 39.890625 C 62.480469 41.539062 65.042969 45.378906 66.132812 50.871094 C 64.710938 53.960938 62.730469 56.691406 60.242188 59 C 60.113281 55.625 59.492188 52.558594 58.476562 50.335938 Z M 33.492188 26.539062 C 32.277344 27.335938 31.1875 28.269531 30.253906 29.308594 C 28.449219 28.160156 27.261719 27.070312 26.5625 26.320312 C 27.84375 24.789062 29.367188 23.453125 31.101562 22.351562 C 31.511719 23.335938 32.246094 24.8125 33.492188 26.539062 Z M 31.917969 21.855469 C 32.898438 21.289062 33.941406 20.792969 35.015625 20.382812 C 35.636719 20.144531 36.273438 19.929688 36.921875 19.738281 C 36.910156 21.230469 37.101562 22.851562 37.480469 24.554688 C 36.367188 24.957031 35.296875 25.457031 34.296875 26.042969 C 33.035156 24.304688 32.3125 22.828125 31.917969 21.855469 Z M 29.636719 30.035156 C 29.144531 30.65625 28.699219 31.316406 28.308594 32 C 28.238281 32.078125 27.890625 32.511719 27.484375 33.417969 C 25.933594 33.019531 24.53125 32.5 23.316406 31.878906 C 23.503906 31.394531 23.707031 30.917969 23.925781 30.457031 C 24.496094 29.257812 25.183594 28.117188 25.972656 27.070312 C 26.691406 27.824219 27.878906 28.90625 29.636719 30.035156 Z M 29.140625 46.585938 C 28.621094 46.871094 28.09375 47.136719 27.570312 47.378906 C 27.710938 46.371094 27.894531 45.40625 28.113281 44.503906 C 28.414062 45.207031 28.757812 45.90625 29.140625 46.585938 Z M 27.128906 34.296875 C 26.714844 35.457031 26.417969 36.800781 26.238281 38.296875 C 24.339844 38.289062 22.902344 38.046875 21.992188 37.835938 C 22.117188 36.09375 22.457031 34.394531 22.996094 32.773438 C 24.214844 33.386719 25.605469 33.898438 27.128906 34.296875 Z M 26.140625 39.242188 C 26.042969 40.414062 26.015625 41.683594 26.058594 43.015625 C 24.738281 43.398438 23.484375 43.628906 22.328125 43.703125 C 22.027344 42.042969 21.898438 40.394531 21.945312 38.792969 C 23.214844 39.078125 24.628906 39.230469 26.140625 39.242188 Z M 26.101562 43.984375 C 26.171875 45.210938 26.296875 46.507812 26.480469 47.84375 C 25.523438 48.222656 24.59375 48.507812 23.710938 48.695312 C 23.207031 47.347656 22.804688 45.984375 22.511719 44.636719 C 23.632812 44.554688 24.835938 44.335938 26.101562 43.984375 Z M 26.621094 48.804688 C 26.734375 49.535156 26.855469 50.238281 26.992188 50.941406 C 26.992188 50.941406 27.179688 49.773438 27.4375 48.46875 C 28.15625 48.160156 28.886719 47.800781 29.617188 47.402344 C 30.269531 48.464844 31.011719 49.472656 31.816406 50.402344 C 29.847656 51.75 27.894531 52.808594 26 53.554688 C 25.265625 52.273438 24.613281 50.941406 24.0625 49.589844 C 24.875 49.40625 25.738281 49.144531 26.621094 48.804688 Z M 32.460938 51.105469 C 32.949219 51.621094 33.441406 52.09375 33.933594 52.503906 C 34.648438 53.109375 35.445312 53.730469 36.207031 54.316406 C 34.105469 56.238281 31.96875 57.773438 29.863281 58.875 C 29.683594 58.667969 29.503906 58.464844 29.316406 58.25 C 28.355469 57.164062 27.378906 55.828125 26.488281 54.375 C 28.429688 53.597656 30.4375 52.5 32.460938 51.105469 Z M 36.972656 54.894531 C 36.996094 54.914062 37.023438 54.933594 37.050781 54.953125 C 38.347656 55.941406 39.8125 57.050781 41.179688 58.234375 C 38.082031 61.15625 35.40625 62.746094 33.667969 63.574219 C 32.761719 62.347656 31.695312 61.015625 30.496094 59.605469 C 32.648438 58.457031 34.824219 56.871094 36.972656 54.894531 Z M 40.453125 56.402344 C 40.691406 55.917969 41.234375 54.871094 42.039062 53.628906 C 42.765625 54.085938 43.75 54.832031 44.582031 55.902344 C 44.535156 55.976562 44.492188 56.050781 44.445312 56.128906 C 44.148438 56.632812 43.859375 57.183594 43.59375 57.769531 C 43.429688 58.132812 43.289062 58.464844 43.167969 58.785156 C 42.378906 58.023438 41.488281 57.238281 40.453125 56.402344 Z M 42.5625 52.84375 C 43.511719 51.480469 44.515625 50.304688 45.550781 49.34375 C 46.132812 50.039062 46.878906 51.105469 47.34375 52.457031 C 47.097656 52.6875 46.859375 52.925781 46.640625 53.160156 C 46.441406 53.371094 46.25 53.59375 46.0625 53.8125 L 46.027344 53.855469 C 45.832031 54.097656 45.644531 54.335938 45.460938 54.585938 C 45.34375 54.75 45.230469 54.910156 45.121094 55.066406 C 44.257812 54.03125 43.28125 53.300781 42.5625 52.84375 Z M 39.832031 21.492188 C 39.902344 21.554688 39.984375 21.609375 40.09375 21.664062 L 40.113281 21.675781 C 40.152344 21.691406 40.191406 21.707031 40.230469 21.71875 C 40.253906 21.726562 40.28125 21.738281 40.304688 21.742188 C 40.332031 22.101562 40.367188 22.835938 40.3125 23.773438 C 39.917969 23.84375 39.234375 23.988281 38.378906 24.253906 C 38.007812 22.550781 37.835938 20.949219 37.871094 19.480469 C 39.289062 19.125 40.476562 18.960938 41.191406 18.890625 C 41.078125 19.054688 40.960938 19.226562 40.835938 19.398438 C 40.796875 19.390625 40.757812 19.382812 40.714844 19.382812 C 40.683594 19.378906 40.652344 19.378906 40.617188 19.378906 C 40.449219 19.378906 40.277344 19.414062 40.128906 19.480469 C 39.761719 19.640625 39.488281 20.003906 39.429688 20.402344 C 39.363281 20.800781 39.519531 21.230469 39.832031 21.492188 Z M 52.152344 43.257812 C 52.96875 43.0625 53.933594 42.792969 54.671875 42.484375 C 54.695312 42.691406 54.714844 42.902344 54.734375 43.113281 L 54.738281 43.152344 C 54.75 43.289062 54.761719 43.425781 54.773438 43.5625 C 54.667969 43.566406 54.558594 43.570312 54.449219 43.570312 C 53.824219 43.570312 52.964844 43.511719 52.152344 43.257812 Z M 39.101562 5.632812 C 41.582031 6.742188 43.953125 8.195312 46.15625 9.957031 C 46.105469 10 46.050781 10.046875 45.996094 10.09375 C 44.875 9.96875 43.738281 9.902344 42.613281 9.902344 C 41.390625 9.902344 40.164062 9.976562 38.960938 10.125 C 39.390625 8.085938 39.257812 6.519531 39.101562 5.632812 Z M 38.183594 4.222656 C 38.160156 4.214844 38.140625 4.195312 38.128906 4.171875 C 38.019531 3.960938 37.929688 3.726562 37.867188 3.472656 C 37.859375 3.457031 37.851562 3.414062 37.898438 3.367188 C 37.90625 3.355469 37.9375 3.335938 37.972656 3.335938 C 37.984375 3.335938 37.996094 3.335938 38.007812 3.339844 C 39.160156 3.695312 40.3125 4.140625 41.433594 4.660156 C 41.601562 4.753906 45.28125 6.789062 46.488281 9.011719 C 43.90625 6.988281 41.113281 5.378906 38.183594 4.222656 Z M 25.40625 9.816406 L 25.363281 9.820312 C 25.277344 9.8125 25.195312 9.804688 25.113281 9.796875 L 25.082031 9.792969 C 25.074219 9.792969 25.066406 9.789062 25.0625 9.785156 C 24.921875 9.640625 24.792969 9.472656 24.679688 9.285156 C 24.679688 9.28125 24.671875 9.273438 24.679688 9.257812 C 24.683594 9.253906 24.695312 9.242188 24.71875 9.242188 C 25.253906 9.242188 25.8125 9.261719 26.386719 9.304688 C 27.367188 9.484375 30.324219 10.101562 32.074219 11.242188 C 29.960938 10.523438 27.8125 10.054688 25.671875 9.847656 Z M 26.296875 10.871094 C 28.035156 11.09375 29.773438 11.484375 31.476562 12.042969 C 30.015625 12.628906 28.589844 13.332031 27.238281 14.136719 C 27.058594 12.675781 26.652344 11.589844 26.296875 10.871094 Z M 13.472656 40 C 13.472656 39.832031 13.472656 39.667969 13.476562 39.5 C 13.476562 39.441406 13.476562 39.382812 13.480469 39.308594 C 13.488281 38.992188 13.496094 38.726562 13.511719 38.476562 C 13.515625 38.375 13.523438 38.273438 13.527344 38.175781 C 13.546875 37.851562 13.574219 37.507812 13.609375 37.15625 C 13.625 36.996094 13.640625 36.835938 13.660156 36.671875 C 13.664062 36.636719 13.667969 36.601562 13.671875 36.5625 C 13.6875 36.433594 13.703125 36.304688 13.722656 36.179688 L 13.746094 36.015625 C 13.765625 35.863281 13.785156 35.714844 13.808594 35.5625 C 13.863281 35.195312 13.933594 34.8125 14.015625 34.394531 C 14.039062 34.261719 14.066406 34.132812 14.09375 34 C 14.132812 33.808594 14.175781 33.617188 14.222656 33.421875 C 14.234375 33.371094 14.246094 33.324219 14.257812 33.269531 C 14.289062 33.132812 14.324219 33 14.359375 32.859375 C 14.398438 32.699219 14.441406 32.539062 14.484375 32.378906 L 14.492188 32.34375 C 14.496094 32.324219 14.503906 32.300781 14.511719 32.273438 C 14.546875 32.136719 14.585938 32.007812 14.625 31.871094 C 14.734375 31.488281 14.855469 31.109375 14.980469 30.742188 L 15.070312 30.472656 L 15.125 30.320312 C 15.148438 30.25 15.171875 30.183594 15.199219 30.113281 C 15.222656 30.039062 15.253906 29.964844 15.28125 29.890625 C 15.308594 29.8125 15.339844 29.734375 15.371094 29.652344 C 15.46875 29.386719 15.5625 29.152344 15.65625 28.929688 C 15.691406 28.839844 15.730469 28.753906 15.769531 28.664062 C 15.894531 28.363281 16.027344 28.066406 16.164062 27.769531 C 16.226562 27.636719 16.289062 27.503906 16.351562 27.371094 C 16.503906 27.054688 16.667969 26.726562 16.863281 26.367188 C 16.933594 26.226562 17.011719 26.085938 17.089844 25.949219 C 17.113281 25.902344 17.136719 25.855469 17.167969 25.808594 C 17.234375 25.683594 17.304688 25.558594 17.375 25.4375 C 17.457031 25.300781 17.535156 25.164062 17.621094 25.027344 C 17.820312 24.691406 18.035156 24.347656 18.261719 24.003906 C 18.339844 23.886719 18.417969 23.773438 18.492188 23.660156 L 18.503906 23.640625 C 18.601562 23.496094 18.703125 23.351562 18.808594 23.207031 C 18.90625 23.0625 19.011719 22.921875 19.117188 22.777344 C 19.21875 22.636719 19.324219 22.496094 19.433594 22.355469 C 19.539062 22.214844 19.648438 22.074219 19.753906 21.9375 C 19.867188 21.800781 19.976562 21.664062 20.085938 21.527344 C 20.199219 21.390625 20.3125 21.257812 20.425781 21.121094 C 20.539062 20.988281 20.652344 20.855469 20.773438 20.722656 C 20.886719 20.589844 21.003906 20.460938 21.125 20.332031 C 21.242188 20.203125 21.359375 20.070312 21.480469 19.945312 C 21.601562 19.816406 21.726562 19.691406 21.851562 19.566406 C 21.972656 19.441406 22.097656 19.316406 22.222656 19.195312 C 22.347656 19.074219 22.472656 18.949219 22.601562 18.828125 C 22.714844 18.722656 22.824219 18.617188 22.941406 18.511719 C 22.976562 18.476562 23.011719 18.441406 23.054688 18.40625 C 23.164062 18.308594 23.269531 18.210938 23.378906 18.117188 C 23.511719 18 23.644531 17.886719 23.777344 17.769531 C 24.039062 17.550781 24.3125 17.324219 24.59375 17.101562 L 24.65625 17.054688 C 24.742188 16.988281 24.824219 16.921875 24.910156 16.855469 C 24.964844 16.8125 25.019531 16.769531 25.078125 16.730469 L 25.183594 16.648438 C 25.242188 16.605469 25.300781 16.5625 25.363281 16.519531 C 27.386719 15.371094 31.28125 13.496094 35.664062 13.144531 C 33.890625 13.71875 30.441406 14.90625 28.894531 15.910156 C 28.894531 15.910156 31.738281 15.722656 35.25 15.722656 C 36.910156 15.722656 40.050781 15.75 40.050781 15.75 C 40.003906 15.71875 39.1875 15.195312 38.230469 14.796875 C 39.296875 14.894531 40.832031 15.085938 42 15.4375 C 42.03125 15.691406 42.089844 16.511719 41.773438 17.890625 C 40.835938 17.945312 38.03125 18.210938 34.699219 19.488281 C 31.007812 20.90625 25.992188 23.890625 23.074219 30.050781 C 20.59375 35.277344 20.289062 41.042969 22.175781 47.1875 C 24.101562 53.46875 27.585938 57.722656 28.609375 58.875 C 33.074219 63.917969 34.90625 66.984375 35.574219 68.289062 C 22.542969 65.050781 13.472656 53.460938 13.472656 40 Z M 36.75 68.554688 C 36.519531 68.011719 35.863281 66.648438 34.230469 64.351562 C 36.027344 63.476562 38.761719 61.828125 41.886719 58.863281 C 43.4375 60.273438 44.628906 61.617188 45.527344 62.96875 C 42.304688 66.125 39.488281 67.839844 37.675781 68.730469 C 37.339844 68.671875 37.035156 68.613281 36.75 68.554688 Z M 42.613281 69.152344 C 41.5 69.152344 40.378906 69.085938 39.265625 68.957031 C 41.542969 67.675781 43.820312 65.941406 46.039062 63.789062 C 46.957031 65.386719 47.488281 67 47.65625 68.714844 C 46 69.003906 44.300781 69.152344 42.613281 69.152344 Z M 46.261719 48.726562 C 47.710938 47.546875 49.195312 46.816406 50.671875 46.558594 C 50.757812 47.515625 50.746094 48.90625 50.289062 50.367188 C 50.21875 50.40625 50.148438 50.441406 50.078125 50.480469 C 49.882812 50.582031 49.683594 50.6875 49.5 50.8125 C 49.441406 50.847656 49.382812 50.882812 49.328125 50.917969 L 49.300781 50.9375 L 49.148438 51.035156 C 48.789062 51.269531 48.441406 51.523438 48.105469 51.792969 C 47.6875 50.710938 47.066406 49.675781 46.261719 48.726562 Z M 48.585938 68.535156 C 48.503906 67.773438 48.347656 67.015625 48.128906 66.273438 C 53.742188 65.09375 58.925781 62.066406 62.742188 57.730469 C 66.722656 53.21875 69.089844 47.433594 69.410156 41.445312 L 69.4375 40.949219 L 68.800781 40.949219 C 67.117188 40.949219 66.273438 41.878906 65.875 42.582031 L 64.484375 39.996094 L 65.875 37.414062 C 66.273438 38.113281 67.117188 39.042969 68.796875 39.042969 L 69.433594 39.042969 L 69.40625 38.546875 C 69.148438 33.671875 67.554688 28.957031 64.800781 24.917969 C 64.75 24.324219 64.683594 23.746094 64.609375 23.199219 C 64.472656 22.203125 64.296875 21.226562 64.089844 20.296875 C 69.035156 25.675781 71.75 32.648438 71.75 39.996094 C 71.75 53.75 62.019531 65.722656 48.585938 68.535156 Z M 58.636719 32.785156 C 58.527344 32.953125 58.148438 33.867188 58.148438 33.867188 C 58.425781 33.707031 58.976562 33.210938 59.253906 32.941406 C 59.519531 32.664062 59.734375 32.398438 59.90625 32.132812 C 60.265625 31.582031 60.550781 30.949219 60.75 30.246094 C 60.933594 29.59375 61.039062 28.914062 61.0625 28.234375 C 61.089844 27.457031 60.84375 26.046875 60.691406 25.460938 C 60.691406 25.460938 60.449219 27.097656 60.378906 27.507812 C 59.695312 27.707031 57.929688 28.371094 58.003906 29.859375 C 58.070312 31.195312 58.449219 32.304688 58.636719 32.785156 Z M 58.285156 43.058594 C 58.558594 42.816406 58.773438 42.507812 58.882812 42.191406 C 59.003906 41.871094 59.058594 41.519531 59.039062 41.175781 C 59.011719 40.785156 58.917969 40.464844 58.746094 40.195312 L 58.574219 39.921875 L 58.480469 40.234375 C 58.429688 40.410156 58.386719 40.574219 58.34375 40.734375 C 57.832031 40.886719 57.496094 41.144531 57.34375 41.5 C 57.140625 41.984375 57.324219 42.511719 57.484375 42.832031 C 57.453125 42.871094 57.421875 42.914062 57.390625 42.957031 C 57.324219 43.046875 57.253906 43.140625 57.183594 43.242188 L 57.003906 43.503906 L 57.320312 43.472656 C 57.6875 43.4375 58.03125 43.289062 58.285156 43.058594 Z M 26.976562 19.082031 C 26.976562 19.082031 29.164062 18.90625 30.738281 18.855469 C 29.859375 19.355469 28 20.53125 26.261719 22.332031 C 26.261719 22.332031 33.542969 18.15625 38.472656 16.941406 C 38.472656 16.941406 31.660156 16.679688 26.976562 19.082031 Z M 26.976562 19.082031 " fill-opacity="1" fill-rule="nonzero"/></svg>